<svg width="1436" height="893" viewBox="0 0 1436 893" fill="none" xmlns="http://www.w3.org/2000/svg">
<path d="M531.851 165.5V174.313H596.15V165.5H611.385V228.813H595.15V232.5H532.851V228.813H516.615V165.5H531.851ZM618.5 209.705V219.581H612.385V209.705H618.5ZM515.615 209.705V219.581H509.5V209.705H515.615ZM618.5 194.754V204.63H612.385V194.754H618.5ZM515.615 194.754V204.63H509.5V194.754H515.615Z" stroke="#5E0F00" stroke-opacity="0.1"/>
<path d="M573.896 219.872V212.783H566.84V189.766H573.896V182.597H596.628V189.766H603.763V212.783H596.628V219.872H573.896ZM575.465 210.955H595.059V191.52H575.465V210.955Z" fill="#5E0F00" fill-opacity="0.1"/>
<path d="M596.129 183.097V190.266H603.262V212.283H596.129V219.372H574.395V212.283H567.34V190.266H574.395V183.097H596.129ZM574.965 211.454H595.559V191.02H574.965V211.454Z" stroke="#5E0F00" stroke-opacity="0.1"/>
<path d="M531.427 219.872V212.783H524.371V189.766H531.427V182.597H554.16V189.766H561.294V212.783H554.16V219.872H531.427ZM532.996 210.955H552.596V191.52H532.996V210.955Z" fill="#5E0F00" fill-opacity="0.1"/>
<path d="M553.66 183.097V190.266H560.794V212.283H553.66V219.372H531.927V212.283H524.871V190.266H531.927V183.097H553.66ZM532.496 211.454H553.096V191.02H532.496V211.454Z" stroke="#5E0F00" stroke-opacity="0.1"/>
<path d="M429.851 110.5V119.313H494.15V110.5H509.385V173.813H493.15V177.5H430.851V173.813H414.615V110.5H429.851ZM516.5 154.705V164.581H510.385V154.705H516.5ZM413.615 154.705V164.581H407.5V154.705H413.615ZM516.5 139.754V149.63H510.385V139.754H516.5ZM413.615 139.754V149.63H407.5V139.754H413.615Z" stroke="#5E0F00" stroke-opacity="0.1"/>
<path d="M471.896 164.872V157.783H464.84V134.766H471.896V127.597H494.628V134.766H501.763V157.783H494.628V164.872H471.896ZM473.465 155.955H493.059V136.52H473.465V155.955Z" fill="#5E0F00" fill-opacity="0.1"/>
<path d="M494.129 128.097V135.266H501.262V157.283H494.129V164.372H472.395V157.283H465.34V135.266H472.395V128.097H494.129ZM472.965 156.454H493.559V136.02H472.965V156.454Z" stroke="#5E0F00" stroke-opacity="0.1"/>
<path d="M429.427 164.872V157.783H422.371V134.766H429.427V127.597H452.16V134.766H459.294V157.783H452.16V164.872H429.427ZM430.996 155.955H450.596V136.52H430.996V155.955Z" fill="#5E0F00" fill-opacity="0.1"/>
<path d="M451.66 128.097V135.266H458.794V157.283H451.66V164.372H429.927V157.283H422.871V135.266H429.927V128.097H451.66ZM430.496 156.454H451.096V136.02H430.496V156.454Z" stroke="#5E0F00" stroke-opacity="0.1"/>
<path d="M225.851 0.5V9.31348H290.15V0.5H305.385V63.8135H289.15V67.5H226.851V63.8135H210.615V0.5H225.851ZM312.5 44.7051V54.5811H306.385V44.7051H312.5ZM209.615 44.7051V54.5811H203.5V44.7051H209.615ZM312.5 29.7539V39.6299H306.385V29.7539H312.5ZM209.615 29.7539V39.6299H203.5V29.7539H209.615Z" stroke="#5E0F00" stroke-opacity="0.1"/>
<path d="M267.896 54.8724V47.7829H260.84V24.7659H267.896V17.5967H290.628V24.7659H297.763V47.7829H290.628V54.8724H267.896ZM269.465 45.9545H289.059V26.5195H269.465V45.9545Z" fill="#5E0F00" fill-opacity="0.1"/>
<path d="M290.129 18.0967V25.2656H297.262V47.2832H290.129V54.3721H268.395V47.2832H261.34V25.2656H268.395V18.0967H290.129ZM268.965 46.4541H289.559V26.0195H268.965V46.4541Z" stroke="#5E0F00" stroke-opacity="0.1"/>
<path d="M225.427 54.8724V47.7829H218.371V24.7659H225.427V17.5967H248.16V24.7659H255.294V47.7829H248.16V54.8724H225.427ZM226.996 45.9545H246.596V26.5195H226.996V45.9545Z" fill="#5E0F00" fill-opacity="0.1"/>
<path d="M247.66 18.0967V25.2656H254.794V47.2832H247.66V54.3721H225.927V47.2832H218.871V25.2656H225.927V18.0967H247.66ZM226.496 46.4541H247.096V26.0195H226.496V46.4541Z" stroke="#5E0F00" stroke-opacity="0.1"/>
<path d="M327.851 55.5V64.3135H392.15V55.5H407.385V118.813H391.15V122.5H328.851V118.813H312.615V55.5H327.851ZM414.5 99.7051V109.581H408.385V99.7051H414.5ZM311.615 99.7051V109.581H305.5V99.7051H311.615ZM414.5 84.7539V94.6299H408.385V84.7539H414.5ZM311.615 84.7539V94.6299H305.5V84.7539H311.615Z" stroke="#5E0F00" stroke-opacity="0.1"/>
<path d="M369.896 109.872V102.783H362.84V79.7659H369.896V72.5967H392.628V79.7659H399.763V102.783H392.628V109.872H369.896ZM371.465 100.955H391.059V81.5195H371.465V100.955Z" fill="#5E0F00" fill-opacity="0.1"/>
<path d="M392.129 73.0967V80.2656H399.262V102.283H392.129V109.372H370.395V102.283H363.34V80.2656H370.395V73.0967H392.129ZM370.965 101.454H391.559V81.0195H370.965V101.454Z" stroke="#5E0F00" stroke-opacity="0.1"/>
<path d="M327.427 109.872V102.783H320.371V79.7659H327.427V72.5967H350.16V79.7659H357.294V102.783H350.16V109.872H327.427ZM328.996 100.955H348.596V81.5195H328.996V100.955Z" fill="#5E0F00" fill-opacity="0.1"/>
<path d="M349.66 73.0967V80.2656H356.794V102.283H349.66V109.372H327.927V102.283H320.871V80.2656H327.927V73.0967H349.66ZM328.496 101.454H349.096V81.0195H328.496V101.454Z" stroke="#5E0F00" stroke-opacity="0.1"/>
<path d="M531.851 55.5V64.3135H596.15V55.5H611.385V118.813H595.15V122.5H532.851V118.813H516.615V55.5H531.851ZM618.5 99.7051V109.581H612.385V99.7051H618.5ZM515.615 99.7051V109.581H509.5V99.7051H515.615ZM618.5 84.7539V94.6299H612.385V84.7539H618.5ZM515.615 84.7539V94.6299H509.5V84.7539H515.615Z" stroke="#5E0F00" stroke-opacity="0.1"/>
<path d="M573.896 109.872V102.783H566.84V79.7659H573.896V72.5967H596.628V79.7659H603.763V102.783H596.628V109.872H573.896ZM575.465 100.955H595.059V81.5195H575.465V100.955Z" fill="#5E0F00" fill-opacity="0.1"/>
<path d="M596.129 73.0967V80.2656H603.262V102.283H596.129V109.372H574.395V102.283H567.34V80.2656H574.395V73.0967H596.129ZM574.965 101.454H595.559V81.0195H574.965V101.454Z" stroke="#5E0F00" stroke-opacity="0.1"/>
<path d="M531.427 109.872V102.783H524.371V79.7659H531.427V72.5967H554.16V79.7659H561.294V102.783H554.16V109.872H531.427ZM532.996 100.955H552.596V81.5195H532.996V100.955Z" fill="#5E0F00" fill-opacity="0.1"/>
<path d="M553.66 73.0967V80.2656H560.794V102.283H553.66V109.372H531.927V102.283H524.871V80.2656H531.927V73.0967H553.66ZM532.496 101.454H553.096V81.0195H532.496V101.454Z" stroke="#5E0F00" stroke-opacity="0.1"/>
<path d="M429.851 0.5V9.31348H494.15V0.5H509.385V63.8135H493.15V67.5H430.851V63.8135H414.615V0.5H429.851ZM516.5 44.7051V54.5811H510.385V44.7051H516.5ZM413.615 44.7051V54.5811H407.5V44.7051H413.615ZM516.5 29.7539V39.6299H510.385V29.7539H516.5ZM413.615 29.7539V39.6299H407.5V29.7539H413.615Z" stroke="#5E0F00" stroke-opacity="0.1"/>
<path d="M471.896 54.8724V47.7829H464.84V24.7659H471.896V17.5967H494.628V24.7659H501.763V47.7829H494.628V54.8724H471.896ZM473.465 45.9545H493.059V26.5195H473.465V45.9545Z" fill="#5E0F00" fill-opacity="0.1"/>
<path d="M494.129 18.0967V25.2656H501.262V47.2832H494.129V54.3721H472.395V47.2832H465.34V25.2656H472.395V18.0967H494.129ZM472.965 46.4541H493.559V26.0195H472.965V46.4541Z" stroke="#5E0F00" stroke-opacity="0.1"/>
<path d="M429.427 54.8724V47.7829H422.371V24.7659H429.427V17.5967H452.16V24.7659H459.294V47.7829H452.16V54.8724H429.427ZM430.996 45.9545H450.596V26.5195H430.996V45.9545Z" fill="#5E0F00" fill-opacity="0.1"/>
<path d="M451.66 18.0967V25.2656H458.794V47.2832H451.66V54.3721H429.927V47.2832H422.871V25.2656H429.927V18.0967H451.66ZM430.496 46.4541H451.096V26.0195H430.496V46.4541Z" stroke="#5E0F00" stroke-opacity="0.1"/>
<path d="M531.851 275.5V284.313H596.15V275.5H611.385V338.813H595.15V342.5H532.851V338.813H516.615V275.5H531.851ZM618.5 319.705V329.581H612.385V319.705H618.5ZM515.615 319.705V329.581H509.5V319.705H515.615ZM618.5 304.754V314.63H612.385V304.754H618.5ZM515.615 304.754V314.63H509.5V304.754H515.615Z" stroke="#5E0F00" stroke-opacity="0.1"/>
<path d="M573.896 329.872V322.783H566.84V299.766H573.896V292.597H596.628V299.766H603.763V322.783H596.628V329.872H573.896ZM575.465 320.955H595.059V301.52H575.465V320.955Z" fill="#5E0F00" fill-opacity="0.1"/>
<path d="M596.129 293.097V300.266H603.262V322.283H596.129V329.372H574.395V322.283H567.34V300.266H574.395V293.097H596.129ZM574.965 321.454H595.559V301.02H574.965V321.454Z" stroke="#5E0F00" stroke-opacity="0.1"/>
<path d="M531.427 329.872V322.783H524.371V299.766H531.427V292.597H554.16V299.766H561.294V322.783H554.16V329.872H531.427ZM532.996 320.955H552.596V301.52H532.996V320.955Z" fill="#5E0F00" fill-opacity="0.1"/>
<path d="M553.66 293.097V300.266H560.794V322.283H553.66V329.372H531.927V322.283H524.871V300.266H531.927V293.097H553.66ZM532.496 321.454H553.096V301.02H532.496V321.454Z" stroke="#5E0F00" stroke-opacity="0.1"/>
<path d="M429.851 220.5V229.313H494.15V220.5H509.385V283.813H493.15V287.5H430.851V283.813H414.615V220.5H429.851ZM516.5 264.705V274.581H510.385V264.705H516.5ZM413.615 264.705V274.581H407.5V264.705H413.615ZM516.5 249.754V259.63H510.385V249.754H516.5ZM413.615 249.754V259.63H407.5V249.754H413.615Z" stroke="#5E0F00" stroke-opacity="0.1"/>
<path d="M471.896 274.872V267.783H464.84V244.766H471.896V237.597H494.628V244.766H501.763V267.783H494.628V274.872H471.896ZM473.465 265.955H493.059V246.52H473.465V265.955Z" fill="#5E0F00" fill-opacity="0.1"/>
<path d="M494.129 238.097V245.266H501.262V267.283H494.129V274.372H472.395V267.283H465.34V245.266H472.395V238.097H494.129ZM472.965 266.454H493.559V246.02H472.965V266.454Z" stroke="#5E0F00" stroke-opacity="0.1"/>
<path d="M429.427 274.872V267.783H422.371V244.766H429.427V237.597H452.16V244.766H459.294V267.783H452.16V274.872H429.427ZM430.996 265.955H450.596V246.52H430.996V265.955Z" fill="#5E0F00" fill-opacity="0.1"/>
<path d="M451.66 238.097V245.266H458.794V267.283H451.66V274.372H429.927V267.283H422.871V245.266H429.927V238.097H451.66ZM430.496 266.454H451.096V246.02H430.496V266.454Z" stroke="#5E0F00" stroke-opacity="0.1"/>
<path d="M531.851 385.5V394.313H596.15V385.5H611.385V448.813H595.15V452.5H532.851V448.813H516.615V385.5H531.851ZM618.5 429.705V439.581H612.385V429.705H618.5ZM515.615 429.705V439.581H509.5V429.705H515.615ZM618.5 414.754V424.63H612.385V414.754H618.5ZM515.615 414.754V424.63H509.5V414.754H515.615Z" stroke="#5E0F00" stroke-opacity="0.1"/>
<path d="M573.896 439.872V432.783H566.84V409.766H573.896V402.597H596.628V409.766H603.763V432.783H596.628V439.872H573.896ZM575.465 430.955H595.059V411.52H575.465V430.955Z" fill="#5E0F00" fill-opacity="0.1"/>
<path d="M596.129 403.097V410.266H603.262V432.283H596.129V439.372H574.395V432.283H567.34V410.266H574.395V403.097H596.129ZM574.965 431.454H595.559V411.02H574.965V431.454Z" stroke="#5E0F00" stroke-opacity="0.1"/>
<path d="M531.427 439.872V432.783H524.371V409.766H531.427V402.597H554.16V409.766H561.294V432.783H554.16V439.872H531.427ZM532.996 430.955H552.596V411.52H532.996V430.955Z" fill="#5E0F00" fill-opacity="0.1"/>
<path d="M553.66 403.097V410.266H560.794V432.283H553.66V439.372H531.927V432.283H524.871V410.266H531.927V403.097H553.66ZM532.496 431.454H553.096V411.02H532.496V431.454Z" stroke="#5E0F00" stroke-opacity="0.1"/>
<path d="M327.851 275.5V284.313H392.15V275.5H407.385V338.813H391.15V342.5H328.851V338.813H312.615V275.5H327.851ZM414.5 319.705V329.581H408.385V319.705H414.5ZM311.615 319.705V329.581H305.5V319.705H311.615ZM414.5 304.754V314.63H408.385V304.754H414.5ZM311.615 304.754V314.63H305.5V304.754H311.615Z" stroke="#5E0F00" stroke-opacity="0.07"/>
<path d="M369.896 329.872V322.783H362.84V299.766H369.896V292.597H392.628V299.766H399.763V322.783H392.628V329.872H369.896ZM371.465 320.955H391.059V301.52H371.465V320.955Z" fill="#5E0F00" fill-opacity="0.04"/>
<path d="M392.129 293.097V300.266H399.262V322.283H392.129V329.372H370.395V322.283H363.34V300.266H370.395V293.097H392.129ZM370.965 321.454H391.559V301.02H370.965V321.454Z" stroke="#5E0F00" stroke-opacity="0.07"/>
<path d="M327.427 329.872V322.783H320.371V299.766H327.427V292.597H350.16V299.766H357.294V322.783H350.16V329.872H327.427ZM328.996 320.955H348.596V301.52H328.996V320.955Z" fill="#5E0F00" fill-opacity="0.04"/>
<path d="M349.66 293.097V300.266H356.794V322.283H349.66V329.372H327.927V322.283H320.871V300.266H327.927V293.097H349.66ZM328.496 321.454H349.096V301.02H328.496V321.454Z" stroke="#5E0F00" stroke-opacity="0.07"/>
<path d="M225.851 220.5V229.313H290.15V220.5H305.385V283.813H289.15V287.5H226.851V283.813H210.615V220.5H225.851ZM312.5 264.705V274.581H306.385V264.705H312.5ZM209.615 264.705V274.581H203.5V264.705H209.615ZM312.5 249.754V259.63H306.385V249.754H312.5ZM209.615 249.754V259.63H203.5V249.754H209.615Z" stroke="#5E0F00" stroke-opacity="0.07"/>
<path d="M267.896 274.872V267.783H260.84V244.766H267.896V237.597H290.628V244.766H297.763V267.783H290.628V274.872H267.896ZM269.465 265.955H289.059V246.52H269.465V265.955Z" fill="#5E0F00" fill-opacity="0.04"/>
<path d="M290.129 238.097V245.266H297.262V267.283H290.129V274.372H268.395V267.283H261.34V245.266H268.395V238.097H290.129ZM268.965 266.454H289.559V246.02H268.965V266.454Z" stroke="#5E0F00" stroke-opacity="0.07"/>
<path d="M225.427 274.872V267.783H218.371V244.766H225.427V237.597H248.16V244.766H255.294V267.783H248.16V274.872H225.427ZM226.996 265.955H246.596V246.52H226.996V265.955Z" fill="#5E0F00" fill-opacity="0.04"/>
<path d="M247.66 238.097V245.266H254.794V267.283H247.66V274.372H225.927V267.283H218.871V245.266H225.927V238.097H247.66ZM226.496 266.454H247.096V246.02H226.496V266.454Z" stroke="#5E0F00" stroke-opacity="0.07"/>
<path d="M225.851 110.5V119.313H290.15V110.5H305.385V173.813H289.15V177.5H226.851V173.813H210.615V110.5H225.851ZM312.5 154.705V164.581H306.385V154.705H312.5ZM209.615 154.705V164.581H203.5V154.705H209.615ZM312.5 139.754V149.63H306.385V139.754H312.5ZM209.615 139.754V149.63H203.5V139.754H209.615Z" stroke="#5E0F00" stroke-opacity="0.07"/>
<path d="M267.896 164.872V157.783H260.84V134.766H267.896V127.597H290.628V134.766H297.763V157.783H290.628V164.872H267.896ZM269.465 155.955H289.059V136.52H269.465V155.955Z" fill="#5E0F00" fill-opacity="0.04"/>
<path d="M290.129 128.097V135.266H297.262V157.283H290.129V164.372H268.395V157.283H261.34V135.266H268.395V128.097H290.129ZM268.965 156.454H289.559V136.02H268.965V156.454Z" stroke="#5E0F00" stroke-opacity="0.07"/>
<path d="M225.427 164.872V157.783H218.371V134.766H225.427V127.597H248.16V134.766H255.294V157.783H248.16V164.872H225.427ZM226.996 155.955H246.596V136.52H226.996V155.955Z" fill="#5E0F00" fill-opacity="0.04"/>
<path d="M247.66 128.097V135.266H254.794V157.283H247.66V164.372H225.927V157.283H218.871V135.266H225.927V128.097H247.66ZM226.496 156.454H247.096V136.02H226.496V156.454Z" stroke="#5E0F00" stroke-opacity="0.07"/>
<path d="M123.851 55.5V64.3135H188.15V55.5H203.385V118.813H187.15V122.5H124.851V118.813H108.615V55.5H123.851ZM210.5 99.7051V109.581H204.385V99.7051H210.5ZM107.615 99.7051V109.581H101.5V99.7051H107.615ZM210.5 84.7539V94.6299H204.385V84.7539H210.5ZM107.615 84.7539V94.6299H101.5V84.7539H107.615Z" stroke="#5E0F00" stroke-opacity="0.07"/>
<path d="M165.896 109.872V102.783H158.84V79.7659H165.896V72.5967H188.628V79.7659H195.763V102.783H188.628V109.872H165.896ZM167.465 100.955H187.059V81.5195H167.465V100.955Z" fill="#5E0F00" fill-opacity="0.04"/>
<path d="M188.129 73.0967V80.2656H195.262V102.283H188.129V109.372H166.395V102.283H159.34V80.2656H166.395V73.0967H188.129ZM166.965 101.454H187.559V81.0195H166.965V101.454Z" stroke="#5E0F00" stroke-opacity="0.07"/>
<path d="M123.427 109.872V102.783H116.371V79.7659H123.427V72.5967H146.16V79.7659H153.294V102.783H146.16V109.872H123.427ZM124.996 100.955H144.596V81.5195H124.996V100.955Z" fill="#5E0F00" fill-opacity="0.04"/>
<path d="M145.66 73.0967V80.2656H152.794V102.283H145.66V109.372H123.927V102.283H116.871V80.2656H123.927V73.0967H145.66ZM124.496 101.454H145.096V81.0195H124.496V101.454Z" stroke="#5E0F00" stroke-opacity="0.07"/>
<path d="M123.851 165.5V174.313H188.15V165.5H203.385V228.813H187.15V232.5H124.851V228.813H108.615V165.5H123.851ZM210.5 209.705V219.581H204.385V209.705H210.5ZM107.615 209.705V219.581H101.5V209.705H107.615ZM210.5 194.754V204.63H204.385V194.754H210.5ZM107.615 194.754V204.63H101.5V194.754H107.615Z" stroke="#5E0F00" stroke-opacity="0.07"/>
<path d="M165.896 219.872V212.783H158.84V189.766H165.896V182.597H188.628V189.766H195.763V212.783H188.628V219.872H165.896ZM167.465 210.955H187.059V191.52H167.465V210.955Z" fill="#5E0F00" fill-opacity="0.04"/>
<path d="M188.129 183.097V190.266H195.262V212.283H188.129V219.372H166.395V212.283H159.34V190.266H166.395V183.097H188.129ZM166.965 211.454H187.559V191.02H166.965V211.454Z" stroke="#5E0F00" stroke-opacity="0.07"/>
<path d="M123.427 219.872V212.783H116.371V189.766H123.427V182.597H146.16V189.766H153.294V212.783H146.16V219.872H123.427ZM124.996 210.955H144.596V191.52H124.996V210.955Z" fill="#5E0F00" fill-opacity="0.04"/>
<path d="M145.66 183.097V190.266H152.794V212.283H145.66V219.372H123.927V212.283H116.871V190.266H123.927V183.097H145.66ZM124.496 211.454H145.096V191.02H124.496V211.454Z" stroke="#5E0F00" stroke-opacity="0.07"/>
<path d="M327.851 165.5V174.313H392.15V165.5H407.385V228.813H391.15V232.5H328.851V228.813H312.615V165.5H327.851ZM414.5 209.705V219.581H408.385V209.705H414.5ZM311.615 209.705V219.581H305.5V209.705H311.615ZM414.5 194.754V204.63H408.385V194.754H414.5ZM311.615 194.754V204.63H305.5V194.754H311.615Z" stroke="#5E0F00" stroke-opacity="0.07"/>
<path d="M369.896 219.872V212.783H362.84V189.766H369.896V182.597H392.628V189.766H399.763V212.783H392.628V219.872H369.896ZM371.465 210.955H391.059V191.52H371.465V210.955Z" fill="#5E0F00" fill-opacity="0.04"/>
<path d="M392.129 183.097V190.266H399.262V212.283H392.129V219.372H370.395V212.283H363.34V190.266H370.395V183.097H392.129ZM370.965 211.454H391.559V191.02H370.965V211.454Z" stroke="#5E0F00" stroke-opacity="0.07"/>
<path d="M327.427 219.872V212.783H320.371V189.766H327.427V182.597H350.16V189.766H357.294V212.783H350.16V219.872H327.427ZM328.996 210.955H348.596V191.52H328.996V210.955Z" fill="#5E0F00" fill-opacity="0.04"/>
<path d="M349.66 183.097V190.266H356.794V212.283H349.66V219.372H327.927V212.283H320.871V190.266H327.927V183.097H349.66ZM328.496 211.454H349.096V191.02H328.496V211.454Z" stroke="#5E0F00" stroke-opacity="0.07"/>
<path d="M327.851 385.5V394.313H392.15V385.5H407.385V448.813H391.15V452.5H328.851V448.813H312.615V385.5H327.851ZM414.5 429.705V439.581H408.385V429.705H414.5ZM311.615 429.705V439.581H305.5V429.705H311.615ZM414.5 414.754V424.63H408.385V414.754H414.5ZM311.615 414.754V424.63H305.5V414.754H311.615Z" stroke="#5E0F00" stroke-opacity="0.07"/>
<path d="M369.896 439.872V432.783H362.84V409.766H369.896V402.597H392.628V409.766H399.763V432.783H392.628V439.872H369.896ZM371.465 430.955H391.059V411.52H371.465V430.955Z" fill="#5E0F00" fill-opacity="0.04"/>
<path d="M392.129 403.097V410.266H399.262V432.283H392.129V439.372H370.395V432.283H363.34V410.266H370.395V403.097H392.129ZM370.965 431.454H391.559V411.02H370.965V431.454Z" stroke="#5E0F00" stroke-opacity="0.07"/>
<path d="M327.427 439.872V432.783H320.371V409.766H327.427V402.597H350.16V409.766H357.294V432.783H350.16V439.872H327.427ZM328.996 430.955H348.596V411.52H328.996V430.955Z" fill="#5E0F00" fill-opacity="0.04"/>
<path d="M349.66 403.097V410.266H356.794V432.283H349.66V439.372H327.927V432.283H320.871V410.266H327.927V403.097H349.66ZM328.496 431.454H349.096V411.02H328.496V431.454Z" stroke="#5E0F00" stroke-opacity="0.07"/>
<path d="M225.851 330.5V339.313H290.15V330.5H305.385V393.813H289.15V397.5H226.851V393.813H210.615V330.5H225.851ZM312.5 374.705V384.581H306.385V374.705H312.5ZM209.615 374.705V384.581H203.5V374.705H209.615ZM312.5 359.754V369.63H306.385V359.754H312.5ZM209.615 359.754V369.63H203.5V359.754H209.615Z" stroke="#5E0F00" stroke-opacity="0.07"/>
<path d="M267.896 384.872V377.783H260.84V354.766H267.896V347.597H290.628V354.766H297.763V377.783H290.628V384.872H267.896ZM269.465 375.955H289.059V356.52H269.465V375.955Z" fill="#5E0F00" fill-opacity="0.1"/>
<path d="M290.129 348.097V355.266H297.262V377.283H290.129V384.372H268.395V377.283H261.34V355.266H268.395V348.097H290.129ZM268.965 376.454H289.559V356.02H268.965V376.454Z" stroke="#5E0F00" stroke-opacity="0.07"/>
<path d="M225.427 384.872V377.783H218.371V354.766H225.427V347.597H248.16V354.766H255.294V377.783H248.16V384.872H225.427ZM226.996 375.955H246.596V356.52H226.996V375.955Z" fill="#5E0F00" fill-opacity="0.1"/>
<path d="M247.66 348.097V355.266H254.794V377.283H247.66V384.372H225.927V377.283H218.871V355.266H225.927V348.097H247.66ZM226.496 376.454H247.096V356.02H226.496V376.454Z" stroke="#5E0F00" stroke-opacity="0.07"/>
<path d="M225.851 440.5V449.313H290.15V440.5H305.385V503.813H289.15V507.5H226.851V503.813H210.615V440.5H225.851ZM312.5 484.705V494.581H306.385V484.705H312.5ZM209.615 484.705V494.581H203.5V484.705H209.615ZM312.5 469.754V479.63H306.385V469.754H312.5ZM209.615 469.754V479.63H203.5V469.754H209.615Z" stroke="#5E0F00" stroke-opacity="0.05"/>
<path d="M267.896 494.872V487.783H260.84V464.766H267.896V457.597H290.628V464.766H297.763V487.783H290.628V494.872H267.896ZM269.465 485.955H289.059V466.52H269.465V485.955Z" fill="#5E0F00" fill-opacity="0.04"/>
<path d="M290.129 458.097V465.266H297.262V487.283H290.129V494.372H268.395V487.283H261.34V465.266H268.395V458.097H290.129ZM268.965 486.454H289.559V466.02H268.965V486.454Z" stroke="#5E0F00" stroke-opacity="0.05"/>
<path d="M225.427 494.872V487.783H218.371V464.766H225.427V457.597H248.16V464.766H255.294V487.783H248.16V494.872H225.427ZM226.996 485.955H246.596V466.52H226.996V485.955Z" fill="#5E0F00" fill-opacity="0.04"/>
<path d="M247.66 458.097V465.266H254.794V487.283H247.66V494.372H225.927V487.283H218.871V465.266H225.927V458.097H247.66ZM226.496 486.454H247.096V466.02H226.496V486.454Z" stroke="#5E0F00" stroke-opacity="0.05"/>
<path d="M123.851 385.5V394.313H188.15V385.5H203.385V448.813H187.15V452.5H124.851V448.813H108.615V385.5H123.851ZM210.5 429.705V439.581H204.385V429.705H210.5ZM107.615 429.705V439.581H101.5V429.705H107.615ZM210.5 414.754V424.63H204.385V414.754H210.5ZM107.615 414.754V424.63H101.5V414.754H107.615Z" stroke="#5E0F00" stroke-opacity="0.05"/>
<path d="M165.896 439.872V432.783H158.84V409.766H165.896V402.597H188.628V409.766H195.763V432.783H188.628V439.872H165.896ZM167.465 430.955H187.059V411.52H167.465V430.955Z" fill="#5E0F00" fill-opacity="0.04"/>
<path d="M188.129 403.097V410.266H195.262V432.283H188.129V439.372H166.395V432.283H159.34V410.266H166.395V403.097H188.129ZM166.965 431.454H187.559V411.02H166.965V431.454Z" stroke="#5E0F00" stroke-opacity="0.05"/>
<path d="M123.427 439.872V432.783H116.371V409.766H123.427V402.597H146.16V409.766H153.294V432.783H146.16V439.872H123.427ZM124.996 430.955H144.596V411.52H124.996V430.955Z" fill="#5E0F00" fill-opacity="0.04"/>
<path d="M145.66 403.097V410.266H152.794V432.283H145.66V439.372H123.927V432.283H116.871V410.266H123.927V403.097H145.66ZM124.496 431.454H145.096V411.02H124.496V431.454Z" stroke="#5E0F00" stroke-opacity="0.05"/>
<path d="M123.851 275.5V284.313H188.15V275.5H203.385V338.813H187.15V342.5H124.851V338.813H108.615V275.5H123.851ZM210.5 319.705V329.581H204.385V319.705H210.5ZM107.615 319.705V329.581H101.5V319.705H107.615ZM210.5 304.754V314.63H204.385V304.754H210.5ZM107.615 304.754V314.63H101.5V304.754H107.615Z" stroke="#5E0F00" stroke-opacity="0.05"/>
<path d="M165.896 329.872V322.783H158.84V299.766H165.896V292.597H188.628V299.766H195.763V322.783H188.628V329.872H165.896ZM167.465 320.955H187.059V301.52H167.465V320.955Z" fill="#5E0F00" fill-opacity="0.04"/>
<path d="M188.129 293.097V300.266H195.262V322.283H188.129V329.372H166.395V322.283H159.34V300.266H166.395V293.097H188.129ZM166.965 321.454H187.559V301.02H166.965V321.454Z" stroke="#5E0F00" stroke-opacity="0.05"/>
<path d="M123.427 329.872V322.783H116.371V299.766H123.427V292.597H146.16V299.766H153.294V322.783H146.16V329.872H123.427ZM124.996 320.955H144.596V301.52H124.996V320.955Z" fill="#5E0F00" fill-opacity="0.04"/>
<path d="M145.66 293.097V300.266H152.794V322.283H145.66V329.372H123.927V322.283H116.871V300.266H123.927V293.097H145.66ZM124.496 321.454H145.096V301.02H124.496V321.454Z" stroke="#5E0F00" stroke-opacity="0.05"/>
<path d="M225.851 550.5V559.313H290.15V550.5H305.385V613.813H289.15V617.5H226.851V613.813H210.615V550.5H225.851ZM312.5 594.705V604.581H306.385V594.705H312.5ZM209.615 594.705V604.581H203.5V594.705H209.615ZM312.5 579.754V589.63H306.385V579.754H312.5ZM209.615 579.754V589.63H203.5V579.754H209.615Z" stroke="#5E0F00" stroke-opacity="0.05"/>
<path d="M267.896 604.872V597.783H260.84V574.766H267.896V567.597H290.628V574.766H297.763V597.783H290.628V604.872H267.896ZM269.465 595.955H289.059V576.52H269.465V595.955Z" fill="#5E0F00" fill-opacity="0.04"/>
<path d="M290.129 568.097V575.266H297.262V597.283H290.129V604.372H268.395V597.283H261.34V575.266H268.395V568.097H290.129ZM268.965 596.454H289.559V576.02H268.965V596.454Z" stroke="#5E0F00" stroke-opacity="0.05"/>
<path d="M225.427 604.872V597.783H218.371V574.766H225.427V567.597H248.16V574.766H255.294V597.783H248.16V604.872H225.427ZM226.996 595.955H246.596V576.52H226.996V595.955Z" fill="#5E0F00" fill-opacity="0.04"/>
<path d="M247.66 568.097V575.266H254.794V597.283H247.66V604.372H225.927V597.283H218.871V575.266H225.927V568.097H247.66ZM226.496 596.454H247.096V576.02H226.496V596.454Z" stroke="#5E0F00" stroke-opacity="0.05"/>
<path d="M123.851 495.5V504.313H188.15V495.5H203.385V558.813H187.15V562.5H124.851V558.813H108.615V495.5H123.851ZM210.5 539.705V549.581H204.385V539.705H210.5ZM107.615 539.705V549.581H101.5V539.705H107.615ZM210.5 524.754V534.63H204.385V524.754H210.5ZM107.615 524.754V534.63H101.5V524.754H107.615Z" stroke="#5E0F00" stroke-opacity="0.05"/>
<path d="M165.896 549.872V542.783H158.84V519.766H165.896V512.597H188.628V519.766H195.763V542.783H188.628V549.872H165.896ZM167.465 540.955H187.059V521.52H167.465V540.955Z" fill="#5E0F00" fill-opacity="0.04"/>
<path d="M188.129 513.097V520.266H195.262V542.283H188.129V549.372H166.395V542.283H159.34V520.266H166.395V513.097H188.129ZM166.965 541.454H187.559V521.02H166.965V541.454Z" stroke="#5E0F00" stroke-opacity="0.05"/>
<path d="M123.427 549.872V542.783H116.371V519.766H123.427V512.597H146.16V519.766H153.294V542.783H146.16V549.872H123.427ZM124.996 540.955H144.596V521.52H124.996V540.955Z" fill="#5E0F00" fill-opacity="0.04"/>
<path d="M145.66 513.097V520.266H152.794V542.283H145.66V549.372H123.927V542.283H116.871V520.266H123.927V513.097H145.66ZM124.496 541.454H145.096V521.02H124.496V541.454Z" stroke="#5E0F00" stroke-opacity="0.05"/>
<path d="M225.851 660.5V669.313H290.15V660.5H305.385V723.813H289.15V727.5H226.851V723.813H210.615V660.5H225.851ZM312.5 704.705V714.581H306.385V704.705H312.5ZM209.615 704.705V714.581H203.5V704.705H209.615ZM312.5 689.754V699.63H306.385V689.754H312.5ZM209.615 689.754V699.63H203.5V689.754H209.615Z" stroke="#5E0F00" stroke-opacity="0.05"/>
<path d="M267.896 714.872V707.783H260.84V684.766H267.896V677.597H290.628V684.766H297.763V707.783H290.628V714.872H267.896ZM269.465 705.955H289.059V686.52H269.465V705.955Z" fill="#5E0F00" fill-opacity="0.04"/>
<path d="M290.129 678.097V685.266H297.262V707.283H290.129V714.372H268.395V707.283H261.34V685.266H268.395V678.097H290.129ZM268.965 706.454H289.559V686.02H268.965V706.454Z" stroke="#5E0F00" stroke-opacity="0.05"/>
<path d="M225.427 714.872V707.783H218.371V684.766H225.427V677.597H248.16V684.766H255.294V707.783H248.16V714.872H225.427ZM226.996 705.955H246.596V686.52H226.996V705.955Z" fill="#5E0F00" fill-opacity="0.04"/>
<path d="M247.66 678.097V685.266H254.794V707.283H247.66V714.372H225.927V707.283H218.871V685.266H225.927V678.097H247.66ZM226.496 706.454H247.096V686.02H226.496V706.454Z" stroke="#5E0F00" stroke-opacity="0.05"/>
<path d="M21.8507 0.5V9.31348H86.1495V0.5H101.385V63.8135H85.1495V67.5H22.8507V63.8135H6.61535V0.5H21.8507ZM108.5 44.7051V54.5811H102.385V44.7051H108.5ZM5.61535 44.7051V54.5811H-0.499883V44.7051H5.61535ZM108.5 29.7539V39.6299H102.385V29.7539H108.5ZM5.61535 29.7539V39.6299H-0.499883V29.7539H5.61535Z" stroke="#5E0F00" stroke-opacity="0.07"/>
<path d="M63.8957 54.8724V47.7829H56.8396V24.7659H63.8957V17.5967H86.6283V24.7659H93.7629V47.7829H86.6283V54.8724H63.8957ZM65.4648 45.9545H85.0592V26.5195H65.4648V45.9545Z" fill="#5E0F00" fill-opacity="0.04"/>
<path d="M86.1287 18.0967V25.2656H93.2625V47.2832H86.1287V54.3721H64.3953V47.2832H57.3396V25.2656H64.3953V18.0967H86.1287ZM64.9646 46.4541H85.5593V26.0195H64.9646V46.4541Z" stroke="#5E0F00" stroke-opacity="0.07"/>
<path d="M21.4273 54.8724V47.7829H14.3712V24.7659H21.4273V17.5967H44.1599V24.7659H51.2945V47.7829H44.1599V54.8724H21.4273ZM22.9965 45.9545H42.5957V26.5195H22.9965V45.9545Z" fill="#5E0F00" fill-opacity="0.04"/>
<path d="M43.6603 18.0967V25.2656H50.7941V47.2832H43.6603V54.3721H21.9269V47.2832H14.8712V25.2656H21.9269V18.0967H43.6603ZM22.4962 46.4541H43.0958V26.0195H22.4962V46.4541Z" stroke="#5E0F00" stroke-opacity="0.07"/>
<path d="M21.8507 110.5V119.313H86.1495V110.5H101.385V173.813H85.1495V177.5H22.8507V173.813H6.61535V110.5H21.8507ZM108.5 154.705V164.581H102.385V154.705H108.5ZM5.61535 154.705V164.581H-0.499883V154.705H5.61535ZM108.5 139.754V149.63H102.385V139.754H108.5ZM5.61535 139.754V149.63H-0.499883V139.754H5.61535Z" stroke="#5E0F00" stroke-opacity="0.07"/>
<path d="M63.8957 164.872V157.783H56.8396V134.766H63.8957V127.597H86.6283V134.766H93.7629V157.783H86.6283V164.872H63.8957ZM65.4648 155.955H85.0592V136.52H65.4648V155.955Z" fill="#5E0F00" fill-opacity="0.04"/>
<path d="M86.1287 128.097V135.266H93.2625V157.283H86.1287V164.372H64.3953V157.283H57.3396V135.266H64.3953V128.097H86.1287ZM64.9646 156.454H85.5593V136.02H64.9646V156.454Z" stroke="#5E0F00" stroke-opacity="0.07"/>
<path d="M21.4273 164.872V157.783H14.3712V134.766H21.4273V127.597H44.1599V134.766H51.2945V157.783H44.1599V164.872H21.4273ZM22.9965 155.955H42.5957V136.52H22.9965V155.955Z" fill="#5E0F00" fill-opacity="0.04"/>
<path d="M43.6603 128.097V135.266H50.7941V157.283H43.6603V164.372H21.9269V157.283H14.8712V135.266H21.9269V128.097H43.6603ZM22.4962 156.454H43.0958V136.02H22.4962V156.454Z" stroke="#5E0F00" stroke-opacity="0.07"/>
<path d="M21.8507 220.5V229.313H86.1495V220.5H101.385V283.813H85.1495V287.5H22.8507V283.813H6.61535V220.5H21.8507ZM108.5 264.705V274.581H102.385V264.705H108.5ZM5.61535 264.705V274.581H-0.499883V264.705H5.61535ZM108.5 249.754V259.63H102.385V249.754H108.5ZM5.61535 249.754V259.63H-0.499883V249.754H5.61535Z" stroke="#5E0F00" stroke-opacity="0.05"/>
<path d="M63.8957 274.872V267.783H56.8396V244.766H63.8957V237.597H86.6283V244.766H93.7629V267.783H86.6283V274.872H63.8957ZM65.4648 265.955H85.0592V246.52H65.4648V265.955Z" fill="#5E0F00" fill-opacity="0.04"/>
<path d="M86.1287 238.097V245.266H93.2625V267.283H86.1287V274.372H64.3953V267.283H57.3396V245.266H64.3953V238.097H86.1287ZM64.9646 266.454H85.5593V246.02H64.9646V266.454Z" stroke="#5E0F00" stroke-opacity="0.05"/>
<path d="M21.4273 274.872V267.783H14.3712V244.766H21.4273V237.597H44.1599V244.766H51.2945V267.783H44.1599V274.872H21.4273ZM22.9965 265.955H42.5957V246.52H22.9965V265.955Z" fill="#5E0F00" fill-opacity="0.04"/>
<path d="M43.6603 238.097V245.266H50.7941V267.283H43.6603V274.372H21.9269V267.283H14.8712V245.266H21.9269V238.097H43.6603ZM22.4962 266.454H43.0958V246.02H22.4962V266.454Z" stroke="#5E0F00" stroke-opacity="0.05"/>
<path d="M735.851 605.5V614.313H800.15V605.5H815.385V668.813H799.15V672.5H736.851V668.813H720.615V605.5H735.851ZM822.5 649.705V659.581H816.385V649.705H822.5ZM719.615 649.705V659.581H713.5V649.705H719.615ZM822.5 634.754V644.63H816.385V634.754H822.5ZM719.615 634.754V644.63H713.5V634.754H719.615Z" stroke="#5E0F00" stroke-opacity="0.2"/>
<path d="M777.896 659.872V652.783H770.84V629.766H777.896V622.597H800.628V629.766H807.763V652.783H800.628V659.872H777.896ZM779.465 650.955H799.059V631.52H779.465V650.955Z" fill="#5E0F00" fill-opacity="0.2"/>
<path d="M800.129 623.097V630.266H807.262V652.283H800.129V659.372H778.395V652.283H771.34V630.266H778.395V623.097H800.129ZM778.965 651.454H799.559V631.02H778.965V651.454Z" stroke="#5E0F00" stroke-opacity="0.2"/>
<path d="M735.427 659.872V652.783H728.371V629.766H735.427V622.597H758.16V629.766H765.294V652.783H758.16V659.872H735.427ZM736.996 650.955H756.596V631.52H736.996V650.955Z" fill="#5E0F00" fill-opacity="0.2"/>
<path d="M757.66 623.097V630.266H764.794V652.283H757.66V659.372H735.927V652.283H728.871V630.266H735.927V623.097H757.66ZM736.496 651.454H757.096V631.02H736.496V651.454Z" stroke="#5E0F00" stroke-opacity="0.2"/>
<path d="M633.851 550.5V559.313H698.15V550.5H713.385V613.813H697.15V617.5H634.851V613.813H618.615V550.5H633.851ZM720.5 594.705V604.581H714.385V594.705H720.5ZM617.615 594.705V604.581H611.5V594.705H617.615ZM720.5 579.754V589.63H714.385V579.754H720.5ZM617.615 579.754V589.63H611.5V579.754H617.615Z" stroke="#5E0F00" stroke-opacity="0.1"/>
<path d="M675.896 604.872V597.783H668.84V574.766H675.896V567.597H698.628V574.766H705.763V597.783H698.628V604.872H675.896ZM677.465 595.955H697.059V576.52H677.465V595.955Z" fill="#5E0F00" fill-opacity="0.1"/>
<path d="M698.129 568.097V575.266H705.262V597.283H698.129V604.372H676.395V597.283H669.34V575.266H676.395V568.097H698.129ZM676.965 596.454H697.559V576.02H676.965V596.454Z" stroke="#5E0F00" stroke-opacity="0.1"/>
<path d="M633.427 604.872V597.783H626.371V574.766H633.427V567.597H656.16V574.766H663.294V597.783H656.16V604.872H633.427ZM634.996 595.955H654.596V576.52H634.996V595.955Z" fill="#5E0F00" fill-opacity="0.1"/>
<path d="M655.66 568.097V575.266H662.794V597.283H655.66V604.372H633.927V597.283H626.871V575.266H633.927V568.097H655.66ZM634.496 596.454H655.096V576.02H634.496V596.454Z" stroke="#5E0F00" stroke-opacity="0.1"/>
<path d="M429.851 440.5V449.313H494.15V440.5H509.385V503.813H493.15V507.5H430.851V503.813H414.615V440.5H429.851ZM516.5 484.705V494.581H510.385V484.705H516.5ZM413.615 484.705V494.581H407.5V484.705H413.615ZM516.5 469.754V479.63H510.385V469.754H516.5ZM413.615 469.754V479.63H407.5V469.754H413.615Z" stroke="#5E0F00" stroke-opacity="0.1"/>
<path d="M471.896 494.872V487.783H464.84V464.766H471.896V457.597H494.628V464.766H501.763V487.783H494.628V494.872H471.896ZM473.465 485.955H493.059V466.52H473.465V485.955Z" fill="#5E0F00" fill-opacity="0.1"/>
<path d="M494.129 458.097V465.266H501.262V487.283H494.129V494.372H472.395V487.283H465.34V465.266H472.395V458.097H494.129ZM472.965 486.454H493.559V466.02H472.965V486.454Z" stroke="#5E0F00" stroke-opacity="0.1"/>
<path d="M429.427 494.872V487.783H422.371V464.766H429.427V457.597H452.16V464.766H459.294V487.783H452.16V494.872H429.427ZM430.996 485.955H450.596V466.52H430.996V485.955Z" fill="#5E0F00" fill-opacity="0.1"/>
<path d="M451.66 458.097V465.266H458.794V487.283H451.66V494.372H429.927V487.283H422.871V465.266H429.927V458.097H451.66ZM430.496 486.454H451.096V466.02H430.496V486.454Z" stroke="#5E0F00" stroke-opacity="0.1"/>
<path d="M429.851 330.5V339.313H494.15V330.5H509.385V393.813H493.15V397.5H430.851V393.813H414.615V330.5H429.851ZM516.5 374.705V384.581H510.385V374.705H516.5ZM413.615 374.705V384.581H407.5V374.705H413.615ZM516.5 359.754V369.63H510.385V359.754H516.5ZM413.615 359.754V369.63H407.5V359.754H413.615Z" stroke="#5E0F00" stroke-opacity="0.1"/>
<path d="M471.896 384.872V377.783H464.84V354.766H471.896V347.597H494.628V354.766H501.763V377.783H494.628V384.872H471.896ZM473.465 375.955H493.059V356.52H473.465V375.955Z" fill="#5E0F00" fill-opacity="0.1"/>
<path d="M494.129 348.097V355.266H501.262V377.283H494.129V384.372H472.395V377.283H465.34V355.266H472.395V348.097H494.129ZM472.965 376.454H493.559V356.02H472.965V376.454Z" stroke="#5E0F00" stroke-opacity="0.1"/>
<path d="M429.427 384.872V377.783H422.371V354.766H429.427V347.597H452.16V354.766H459.294V377.783H452.16V384.872H429.427ZM430.996 375.955H450.596V356.52H430.996V375.955Z" fill="#5E0F00" fill-opacity="0.1"/>
<path d="M451.66 348.097V355.266H458.794V377.283H451.66V384.372H429.927V377.283H422.871V355.266H429.927V348.097H451.66ZM430.496 376.454H451.096V356.02H430.496V376.454Z" stroke="#5E0F00" stroke-opacity="0.1"/>
<path d="M531.851 495.5V504.313H596.15V495.5H611.385V558.813H595.15V562.5H532.851V558.813H516.615V495.5H531.851ZM618.5 539.705V549.581H612.385V539.705H618.5ZM515.615 539.705V549.581H509.5V539.705H515.615ZM618.5 524.754V534.63H612.385V524.754H618.5ZM515.615 524.754V534.63H509.5V524.754H515.615Z" stroke="#5E0F00" stroke-opacity="0.1"/>
<path d="M573.896 549.872V542.783H566.84V519.766H573.896V512.597H596.628V519.766H603.763V542.783H596.628V549.872H573.896ZM575.465 540.955H595.059V521.52H575.465V540.955Z" fill="#5E0F00" fill-opacity="0.1"/>
<path d="M596.129 513.097V520.266H603.262V542.283H596.129V549.372H574.395V542.283H567.34V520.266H574.395V513.097H596.129ZM574.965 541.454H595.559V521.02H574.965V541.454Z" stroke="#5E0F00" stroke-opacity="0.1"/>
<path d="M531.427 549.872V542.783H524.371V519.766H531.427V512.597H554.16V519.766H561.294V542.783H554.16V549.872H531.427ZM532.996 540.955H552.596V521.52H532.996V540.955Z" fill="#5E0F00" fill-opacity="0.1"/>
<path d="M553.66 513.097V520.266H560.794V542.283H553.66V549.372H531.927V542.283H524.871V520.266H531.927V513.097H553.66ZM532.496 541.454H553.096V521.02H532.496V541.454Z" stroke="#5E0F00" stroke-opacity="0.1"/>
<path d="M735.851 495.5V504.313H800.15V495.5H815.385V558.813H799.15V562.5H736.851V558.813H720.615V495.5H735.851ZM822.5 539.705V549.581H816.385V539.705H822.5ZM719.615 539.705V549.581H713.5V539.705H719.615ZM822.5 524.754V534.63H816.385V524.754H822.5ZM719.615 524.754V534.63H713.5V524.754H719.615Z" stroke="#5E0F00" stroke-opacity="0.2"/>
<path d="M777.896 549.872V542.783H770.84V519.766H777.896V512.597H800.628V519.766H807.763V542.783H800.628V549.872H777.896ZM779.465 540.955H799.059V521.52H779.465V540.955Z" fill="#5E0F00" fill-opacity="0.2"/>
<path d="M800.129 513.097V520.266H807.262V542.283H800.129V549.372H778.395V542.283H771.34V520.266H778.395V513.097H800.129ZM778.965 541.454H799.559V521.02H778.965V541.454Z" stroke="#5E0F00" stroke-opacity="0.2"/>
<path d="M735.427 549.872V542.783H728.371V519.766H735.427V512.597H758.16V519.766H765.294V542.783H758.16V549.872H735.427ZM736.996 540.955H756.596V521.52H736.996V540.955Z" fill="#5E0F00" fill-opacity="0.2"/>
<path d="M757.66 513.097V520.266H764.794V542.283H757.66V549.372H735.927V542.283H728.871V520.266H735.927V513.097H757.66ZM736.496 541.454H757.096V521.02H736.496V541.454Z" stroke="#5E0F00" stroke-opacity="0.2"/>
<path d="M633.851 440.5V449.313H698.15V440.5H713.385V503.813H697.15V507.5H634.851V503.813H618.615V440.5H633.851ZM720.5 484.705V494.581H714.385V484.705H720.5ZM617.615 484.705V494.581H611.5V484.705H617.615ZM720.5 469.754V479.63H714.385V469.754H720.5ZM617.615 469.754V479.63H611.5V469.754H617.615Z" stroke="#5E0F00" stroke-opacity="0.1"/>
<path d="M675.896 494.872V487.783H668.84V464.766H675.896V457.597H698.628V464.766H705.763V487.783H698.628V494.872H675.896ZM677.465 485.955H697.059V466.52H677.465V485.955Z" fill="#5E0F00" fill-opacity="0.1"/>
<path d="M698.129 458.097V465.266H705.262V487.283H698.129V494.372H676.395V487.283H669.34V465.266H676.395V458.097H698.129ZM676.965 486.454H697.559V466.02H676.965V486.454Z" stroke="#5E0F00" stroke-opacity="0.1"/>
<path d="M633.427 494.872V487.783H626.371V464.766H633.427V457.597H656.16V464.766H663.294V487.783H656.16V494.872H633.427ZM634.996 485.955H654.596V466.52H634.996V485.955Z" fill="#5E0F00" fill-opacity="0.1"/>
<path d="M655.66 458.097V465.266H662.794V487.283H655.66V494.372H633.927V487.283H626.871V465.266H633.927V458.097H655.66ZM634.496 486.454H655.096V466.02H634.496V486.454Z" stroke="#5E0F00" stroke-opacity="0.1"/>
<path d="M838.851 660.5V669.313H903.15V660.5H918.385V723.813H902.15V727.5H839.851V723.813H823.615V660.5H838.851ZM925.5 704.705V714.581H919.385V704.705H925.5ZM822.615 704.705V714.581H816.5V704.705H822.615ZM925.5 689.754V699.63H919.385V689.754H925.5ZM822.615 689.754V699.63H816.5V689.754H822.615Z" stroke="#5E0F00" stroke-opacity="0.1"/>
<path d="M880.896 714.872V707.783H873.84V684.766H880.896V677.597H903.628V684.766H910.763V707.783H903.628V714.872H880.896ZM882.465 705.955H902.059V686.52H882.465V705.955Z" fill="#5E0F00" fill-opacity="0.1"/>
<path d="M903.129 678.097V685.266H910.262V707.283H903.129V714.372H881.395V707.283H874.34V685.266H881.395V678.097H903.129ZM881.965 706.454H902.559V686.02H881.965V706.454Z" stroke="#5E0F00" stroke-opacity="0.1"/>
<path d="M838.427 714.872V707.783H831.371V684.766H838.427V677.597H861.16V684.766H868.294V707.783H861.16V714.872H838.427ZM839.996 705.955H859.596V686.52H839.996V705.955Z" fill="#5E0F00" fill-opacity="0.1"/>
<path d="M860.66 678.097V685.266H867.794V707.283H860.66V714.372H838.927V707.283H831.871V685.266H838.927V678.097H860.66ZM839.496 706.454H860.096V686.02H839.496V706.454Z" stroke="#5E0F00" stroke-opacity="0.1"/>
<path d="M633.851 660.5V669.313H698.15V660.5H713.385V723.813H697.15V727.5H634.851V723.813H618.615V660.5H633.851ZM720.5 704.705V714.581H714.385V704.705H720.5ZM617.615 704.705V714.581H611.5V704.705H617.615ZM720.5 689.754V699.63H714.385V689.754H720.5ZM617.615 689.754V699.63H611.5V689.754H617.615Z" stroke="#5E0F00" stroke-opacity="0.1"/>
<path d="M675.896 714.872V707.783H668.84V684.766H675.896V677.597H698.628V684.766H705.763V707.783H698.628V714.872H675.896ZM677.465 705.955H697.059V686.52H677.465V705.955Z" fill="#5E0F00" fill-opacity="0.1"/>
<path d="M698.129 678.097V685.266H705.262V707.283H698.129V714.372H676.395V707.283H669.34V685.266H676.395V678.097H698.129ZM676.965 706.454H697.559V686.02H676.965V706.454Z" stroke="#5E0F00" stroke-opacity="0.1"/>
<path d="M633.427 714.872V707.783H626.371V684.766H633.427V677.597H656.16V684.766H663.294V707.783H656.16V714.872H633.427ZM634.996 705.955H654.596V686.52H634.996V705.955Z" fill="#5E0F00" fill-opacity="0.1"/>
<path d="M655.66 678.097V685.266H662.794V707.283H655.66V714.372H633.927V707.283H626.871V685.266H633.927V678.097H655.66ZM634.496 706.454H655.096V686.02H634.496V706.454Z" stroke="#5E0F00" stroke-opacity="0.1"/>
<path d="M838.851 770.5V779.313H903.15V770.5H918.385V833.813H902.15V837.5H839.851V833.813H823.615V770.5H838.851ZM925.5 814.705V824.581H919.385V814.705H925.5ZM822.615 814.705V824.581H816.5V814.705H822.615ZM925.5 799.754V809.63H919.385V799.754H925.5ZM822.615 799.754V809.63H816.5V799.754H822.615Z" stroke="#5E0F00" stroke-opacity="0.1"/>
<path d="M880.896 824.872V817.783H873.84V794.766H880.896V787.597H903.628V794.766H910.763V817.783H903.628V824.872H880.896ZM882.465 815.955H902.059V796.52H882.465V815.955Z" fill="#5E0F00" fill-opacity="0.1"/>
<path d="M903.129 788.097V795.266H910.262V817.283H903.129V824.372H881.395V817.283H874.34V795.266H881.395V788.097H903.129ZM881.965 816.454H902.559V796.02H881.965V816.454Z" stroke="#5E0F00" stroke-opacity="0.1"/>
<path d="M838.427 824.872V817.783H831.371V794.766H838.427V787.597H861.16V794.766H868.294V817.783H861.16V824.872H838.427ZM839.996 815.955H859.596V796.52H839.996V815.955Z" fill="#5E0F00" fill-opacity="0.1"/>
<path d="M860.66 788.097V795.266H867.794V817.283H860.66V824.372H838.927V817.283H831.871V795.266H838.927V788.097H860.66ZM839.496 816.454H860.096V796.02H839.496V816.454Z" stroke="#5E0F00" stroke-opacity="0.1"/>
<path d="M838.851 550.5V559.313H903.15V550.5H918.385V613.813H902.15V617.5H839.851V613.813H823.615V550.5H838.851ZM925.5 594.705V604.581H919.385V594.705H925.5ZM822.615 594.705V604.581H816.5V594.705H822.615ZM925.5 579.754V589.63H919.385V579.754H925.5ZM822.615 579.754V589.63H816.5V579.754H822.615Z" stroke="#5E0F00" stroke-opacity="0.2"/>
<path d="M880.896 604.872V597.783H873.84V574.766H880.896V567.597H903.628V574.766H910.763V597.783H903.628V604.872H880.896ZM882.465 595.955H902.059V576.52H882.465V595.955Z" fill="#5E0F00" fill-opacity="0.2"/>
<path d="M903.129 568.097V575.266H910.262V597.283H903.129V604.372H881.395V597.283H874.34V575.266H881.395V568.097H903.129ZM881.965 596.454H902.559V576.02H881.965V596.454Z" stroke="#5E0F00" stroke-opacity="0.2"/>
<path d="M838.427 604.872V597.783H831.371V574.766H838.427V567.597H861.16V574.766H868.294V597.783H861.16V604.872H838.427ZM839.996 595.955H859.596V576.52H839.996V595.955Z" fill="#5E0F00" fill-opacity="0.2"/>
<path d="M860.66 568.097V575.266H867.794V597.283H860.66V604.372H838.927V597.283H831.871V575.266H838.927V568.097H860.66ZM839.496 596.454H860.096V576.02H839.496V596.454Z" stroke="#5E0F00" stroke-opacity="0.2"/>
<path d="M940.851 605.5V614.313H1005.15V605.5H1020.38V668.813H1004.15V672.5H941.851V668.813H925.615V605.5H940.851ZM1027.5 649.705V659.581H1021.38V649.705H1027.5ZM924.615 649.705V659.581H918.5V649.705H924.615ZM1027.5 634.754V644.63H1021.38V634.754H1027.5ZM924.615 634.754V644.63H918.5V634.754H924.615Z" stroke="#5E0F00" stroke-opacity="0.1"/>
<path d="M982.896 659.872V652.783H975.84V629.766H982.896V622.597H1005.63V629.766H1012.76V652.783H1005.63V659.872H982.896ZM984.465 650.955H1004.06V631.52H984.465V650.955Z" fill="#5E0F00" fill-opacity="0.1"/>
<path d="M1005.13 623.097V630.266H1012.26V652.283H1005.13V659.372H983.395V652.283H976.34V630.266H983.395V623.097H1005.13ZM983.965 651.454H1004.56V631.02H983.965V651.454Z" stroke="#5E0F00" stroke-opacity="0.1"/>
<path d="M940.427 659.872V652.783H933.371V629.766H940.427V622.597H963.16V629.766H970.294V652.783H963.16V659.872H940.427ZM941.996 650.955H961.596V631.52H941.996V650.955Z" fill="#5E0F00" fill-opacity="0.1"/>
<path d="M962.66 623.097V630.266H969.794V652.283H962.66V659.372H940.927V652.283H933.871V630.266H940.927V623.097H962.66ZM941.496 651.454H962.096V631.02H941.496V651.454Z" stroke="#5E0F00" stroke-opacity="0.1"/>
<path d="M1348.85 605.5V614.313H1413.15V605.5H1428.38V668.813H1412.15V672.5H1349.85V668.813H1333.62V605.5H1348.85ZM1435.5 649.705V659.581H1429.38V649.705H1435.5ZM1332.62 649.705V659.581H1326.5V649.705H1332.62ZM1435.5 634.754V644.63H1429.38V634.754H1435.5ZM1332.62 634.754V644.63H1326.5V634.754H1332.62Z" stroke="#5E0F00" stroke-opacity="0.1"/>
<path d="M1390.9 659.872V652.783H1383.84V629.766H1390.9V622.597H1413.63V629.766H1420.76V652.783H1413.63V659.872H1390.9ZM1392.46 650.955H1412.06V631.52H1392.46V650.955Z" fill="#5E0F00" fill-opacity="0.1"/>
<path d="M1413.13 623.097V630.266H1420.26V652.283H1413.13V659.372H1391.4V652.283H1384.34V630.266H1391.4V623.097H1413.13ZM1391.96 651.454H1412.56V631.02H1391.96V651.454Z" stroke="#5E0F00" stroke-opacity="0.1"/>
<path d="M1348.43 659.872V652.783H1341.37V629.766H1348.43V622.597H1371.16V629.766H1378.29V652.783H1371.16V659.872H1348.43ZM1350 650.955H1369.6V631.52H1350V650.955Z" fill="#5E0F00" fill-opacity="0.1"/>
<path d="M1370.66 623.097V630.266H1377.79V652.283H1370.66V659.372H1348.93V652.283H1341.87V630.266H1348.93V623.097H1370.66ZM1349.5 651.454H1370.1V631.02H1349.5V651.454Z" stroke="#5E0F00" stroke-opacity="0.1"/>
<path d="M1348.85 495.5V504.313H1413.15V495.5H1428.38V558.813H1412.15V562.5H1349.85V558.813H1333.62V495.5H1348.85ZM1435.5 539.705V549.581H1429.38V539.705H1435.5ZM1332.62 539.705V549.581H1326.5V539.705H1332.62ZM1435.5 524.754V534.63H1429.38V524.754H1435.5ZM1332.62 524.754V534.63H1326.5V524.754H1332.62Z" stroke="#5E0F00" stroke-opacity="0.1"/>
<path d="M1390.9 549.872V542.783H1383.84V519.766H1390.9V512.597H1413.63V519.766H1420.76V542.783H1413.63V549.872H1390.9ZM1392.46 540.955H1412.06V521.52H1392.46V540.955Z" fill="#5E0F00" fill-opacity="0.1"/>
<path d="M1413.13 513.097V520.266H1420.26V542.283H1413.13V549.372H1391.4V542.283H1384.34V520.266H1391.4V513.097H1413.13ZM1391.96 541.454H1412.56V521.02H1391.96V541.454Z" stroke="#5E0F00" stroke-opacity="0.1"/>
<path d="M1348.43 549.872V542.783H1341.37V519.766H1348.43V512.597H1371.16V519.766H1378.29V542.783H1371.16V549.872H1348.43ZM1350 540.955H1369.6V521.52H1350V540.955Z" fill="#5E0F00" fill-opacity="0.1"/>
<path d="M1370.66 513.097V520.266H1377.79V542.283H1370.66V549.372H1348.93V542.283H1341.87V520.266H1348.93V513.097H1370.66ZM1349.5 541.454H1370.1V521.02H1349.5V541.454Z" stroke="#5E0F00" stroke-opacity="0.1"/>
<path d="M1348.85 715.5V724.313H1413.15V715.5H1428.38V778.813H1412.15V782.5H1349.85V778.813H1333.62V715.5H1348.85ZM1435.5 759.705V769.581H1429.38V759.705H1435.5ZM1332.62 759.705V769.581H1326.5V759.705H1332.62ZM1435.5 744.754V754.63H1429.38V744.754H1435.5ZM1332.62 744.754V754.63H1326.5V744.754H1332.62Z" stroke="#5E0F00" stroke-opacity="0.1"/>
<path d="M1390.9 769.872V762.783H1383.84V739.766H1390.9V732.597H1413.63V739.766H1420.76V762.783H1413.63V769.872H1390.9ZM1392.46 760.955H1412.06V741.52H1392.46V760.955Z" fill="#5E0F00" fill-opacity="0.1"/>
<path d="M1413.13 733.097V740.266H1420.26V762.283H1413.13V769.372H1391.4V762.283H1384.34V740.266H1391.4V733.097H1413.13ZM1391.96 761.454H1412.56V741.02H1391.96V761.454Z" stroke="#5E0F00" stroke-opacity="0.1"/>
<path d="M1348.43 769.872V762.783H1341.37V739.766H1348.43V732.597H1371.16V739.766H1378.29V762.783H1371.16V769.872H1348.43ZM1350 760.955H1369.6V741.52H1350V760.955Z" fill="#5E0F00" fill-opacity="0.1"/>
<path d="M1370.66 733.097V740.266H1377.79V762.283H1370.66V769.372H1348.93V762.283H1341.87V740.266H1348.93V733.097H1370.66ZM1349.5 761.454H1370.1V741.02H1349.5V761.454Z" stroke="#5E0F00" stroke-opacity="0.1"/>
<path d="M1348.85 825.5V834.313H1413.15V825.5H1428.38V888.813H1412.15V892.5H1349.85V888.813H1333.62V825.5H1348.85ZM1435.5 869.705V879.581H1429.38V869.705H1435.5ZM1332.62 869.705V879.581H1326.5V869.705H1332.62ZM1435.5 854.754V864.63H1429.38V854.754H1435.5ZM1332.62 854.754V864.63H1326.5V854.754H1332.62Z" stroke="#5E0F00" stroke-opacity="0.1"/>
<path d="M1390.9 879.872V872.783H1383.84V849.766H1390.9V842.597H1413.63V849.766H1420.76V872.783H1413.63V879.872H1390.9ZM1392.46 870.955H1412.06V851.52H1392.46V870.955Z" fill="#5E0F00" fill-opacity="0.1"/>
<path d="M1413.13 843.097V850.266H1420.26V872.283H1413.13V879.372H1391.4V872.283H1384.34V850.266H1391.4V843.097H1413.13ZM1391.96 871.454H1412.56V851.02H1391.96V871.454Z" stroke="#5E0F00" stroke-opacity="0.1"/>
<path d="M1348.43 879.872V872.783H1341.37V849.766H1348.43V842.597H1371.16V849.766H1378.29V872.783H1371.16V879.872H1348.43ZM1350 870.955H1369.6V851.52H1350V870.955Z" fill="#5E0F00" fill-opacity="0.1"/>
<path d="M1370.66 843.097V850.266H1377.79V872.283H1370.66V879.372H1348.93V872.283H1341.87V850.266H1348.93V843.097H1370.66ZM1349.5 871.454H1370.1V851.02H1349.5V871.454Z" stroke="#5E0F00" stroke-opacity="0.1"/>
<path d="M1246.85 550.5V559.313H1311.15V550.5H1326.38V613.813H1310.15V617.5H1247.85V613.813H1231.62V550.5H1246.85ZM1333.5 594.705V604.581H1327.38V594.705H1333.5ZM1230.62 594.705V604.581H1224.5V594.705H1230.62ZM1333.5 579.754V589.63H1327.38V579.754H1333.5ZM1230.62 579.754V589.63H1224.5V579.754H1230.62Z" stroke="#5E0F00" stroke-opacity="0.1"/>
<path d="M1288.9 604.872V597.783H1281.84V574.766H1288.9V567.597H1311.63V574.766H1318.76V597.783H1311.63V604.872H1288.9ZM1290.46 595.955H1310.06V576.52H1290.46V595.955Z" fill="#5E0F00" fill-opacity="0.1"/>
<path d="M1311.13 568.097V575.266H1318.26V597.283H1311.13V604.372H1289.4V597.283H1282.34V575.266H1289.4V568.097H1311.13ZM1289.96 596.454H1310.56V576.02H1289.96V596.454Z" stroke="#5E0F00" stroke-opacity="0.1"/>
<path d="M1246.43 604.872V597.783H1239.37V574.766H1246.43V567.597H1269.16V574.766H1276.29V597.783H1269.16V604.872H1246.43ZM1248 595.955H1267.6V576.52H1248V595.955Z" fill="#5E0F00" fill-opacity="0.1"/>
<path d="M1268.66 568.097V575.266H1275.79V597.283H1268.66V604.372H1246.93V597.283H1239.87V575.266H1246.93V568.097H1268.66ZM1247.5 596.454H1268.1V576.02H1247.5V596.454Z" stroke="#5E0F00" stroke-opacity="0.1"/>
<path d="M1246.85 440.5V449.313H1311.15V440.5H1326.38V503.813H1310.15V507.5H1247.85V503.813H1231.62V440.5H1246.85ZM1333.5 484.705V494.581H1327.38V484.705H1333.5ZM1230.62 484.705V494.581H1224.5V484.705H1230.62ZM1333.5 469.754V479.63H1327.38V469.754H1333.5ZM1230.62 469.754V479.63H1224.5V469.754H1230.62Z" stroke="#5E0F00" stroke-opacity="0.1"/>
<path d="M1288.9 494.872V487.783H1281.84V464.766H1288.9V457.597H1311.63V464.766H1318.76V487.783H1311.63V494.872H1288.9ZM1290.46 485.955H1310.06V466.52H1290.46V485.955Z" fill="#5E0F00" fill-opacity="0.1"/>
<path d="M1311.13 458.097V465.266H1318.26V487.283H1311.13V494.372H1289.4V487.283H1282.34V465.266H1289.4V458.097H1311.13ZM1289.96 486.454H1310.56V466.02H1289.96V486.454Z" stroke="#5E0F00" stroke-opacity="0.1"/>
<path d="M1246.43 494.872V487.783H1239.37V464.766H1246.43V457.597H1269.16V464.766H1276.29V487.783H1269.16V494.872H1246.43ZM1248 485.955H1267.6V466.52H1248V485.955Z" fill="#5E0F00" fill-opacity="0.1"/>
<path d="M1268.66 458.097V465.266H1275.79V487.283H1268.66V494.372H1246.93V487.283H1239.87V465.266H1246.93V458.097H1268.66ZM1247.5 486.454H1268.1V466.02H1247.5V486.454Z" stroke="#5E0F00" stroke-opacity="0.1"/>
<path d="M1246.85 660.5V669.313H1311.15V660.5H1326.38V723.813H1310.15V727.5H1247.85V723.813H1231.62V660.5H1246.85ZM1333.5 704.705V714.581H1327.38V704.705H1333.5ZM1230.62 704.705V714.581H1224.5V704.705H1230.62ZM1333.5 689.754V699.63H1327.38V689.754H1333.5ZM1230.62 689.754V699.63H1224.5V689.754H1230.62Z" stroke="#5E0F00" stroke-opacity="0.1"/>
<path d="M1288.9 714.872V707.783H1281.84V684.766H1288.9V677.597H1311.63V684.766H1318.76V707.783H1311.63V714.872H1288.9ZM1290.46 705.955H1310.06V686.52H1290.46V705.955Z" fill="#5E0F00" fill-opacity="0.1"/>
<path d="M1311.13 678.097V685.266H1318.26V707.283H1311.13V714.372H1289.4V707.283H1282.34V685.266H1289.4V678.097H1311.13ZM1289.96 706.454H1310.56V686.02H1289.96V706.454Z" stroke="#5E0F00" stroke-opacity="0.1"/>
<path d="M1246.43 714.872V707.783H1239.37V684.766H1246.43V677.597H1269.16V684.766H1276.29V707.783H1269.16V714.872H1246.43ZM1248 705.955H1267.6V686.52H1248V705.955Z" fill="#5E0F00" fill-opacity="0.1"/>
<path d="M1268.66 678.097V685.266H1275.79V707.283H1268.66V714.372H1246.93V707.283H1239.87V685.266H1246.93V678.097H1268.66ZM1247.5 706.454H1268.1V686.02H1247.5V706.454Z" stroke="#5E0F00" stroke-opacity="0.1"/>
<path d="M1246.85 770.5V779.313H1311.15V770.5H1326.38V833.813H1310.15V837.5H1247.85V833.813H1231.62V770.5H1246.85ZM1333.5 814.705V824.581H1327.38V814.705H1333.5ZM1230.62 814.705V824.581H1224.5V814.705H1230.62ZM1333.5 799.754V809.63H1327.38V799.754H1333.5ZM1230.62 799.754V809.63H1224.5V799.754H1230.62Z" stroke="#5E0F00" stroke-opacity="0.1"/>
<path d="M1288.9 824.872V817.783H1281.84V794.766H1288.9V787.597H1311.63V794.766H1318.76V817.783H1311.63V824.872H1288.9ZM1290.46 815.955H1310.06V796.52H1290.46V815.955Z" fill="#5E0F00" fill-opacity="0.1"/>
<path d="M1311.13 788.097V795.266H1318.26V817.283H1311.13V824.372H1289.4V817.283H1282.34V795.266H1289.4V788.097H1311.13ZM1289.96 816.454H1310.56V796.02H1289.96V816.454Z" stroke="#5E0F00" stroke-opacity="0.1"/>
<path d="M1246.43 824.872V817.783H1239.37V794.766H1246.43V787.597H1269.16V794.766H1276.29V817.783H1269.16V824.872H1246.43ZM1248 815.955H1267.6V796.52H1248V815.955Z" fill="#5E0F00" fill-opacity="0.1"/>
<path d="M1268.66 788.097V795.266H1275.79V817.283H1268.66V824.372H1246.93V817.283H1239.87V795.266H1246.93V788.097H1268.66ZM1247.5 816.454H1268.1V796.02H1247.5V816.454Z" stroke="#5E0F00" stroke-opacity="0.1"/>
<path d="M634.851 110.5V119.313H699.15V110.5H714.385V173.813H698.15V177.5H635.851V173.813H619.615V110.5H634.851ZM721.5 154.705V164.581H715.385V154.705H721.5ZM618.615 154.705V164.581H612.5V154.705H618.615ZM721.5 139.754V149.63H715.385V139.754H721.5ZM618.615 139.754V149.63H612.5V139.754H618.615Z" stroke="#5E0F00" stroke-opacity="0.1"/>
<path d="M676.896 164.872V157.783H669.84V134.766H676.896V127.597H699.628V134.766H706.763V157.783H699.628V164.872H676.896ZM678.465 155.955H698.059V136.52H678.465V155.955Z" fill="#5E0F00" fill-opacity="0.1"/>
<path d="M699.129 128.097V135.266H706.262V157.283H699.129V164.372H677.395V157.283H670.34V135.266H677.395V128.097H699.129ZM677.965 156.454H698.559V136.02H677.965V156.454Z" stroke="#5E0F00" stroke-opacity="0.1"/>
<path d="M634.427 164.872V157.783H627.371V134.766H634.427V127.597H657.16V134.766H664.294V157.783H657.16V164.872H634.427ZM635.996 155.955H655.596V136.52H635.996V155.955Z" fill="#5E0F00" fill-opacity="0.1"/>
<path d="M656.66 128.097V135.266H663.794V157.283H656.66V164.372H634.927V157.283H627.871V135.266H634.927V128.097H656.66ZM635.496 156.454H656.096V136.02H635.496V156.454Z" stroke="#5E0F00" stroke-opacity="0.1"/>
<path d="M736.851 165.5V174.313H801.15V165.5H816.385V228.813H800.15V232.5H737.851V228.813H721.615V165.5H736.851ZM823.5 209.705V219.581H817.385V209.705H823.5ZM720.615 209.705V219.581H714.5V209.705H720.615ZM823.5 194.754V204.63H817.385V194.754H823.5ZM720.615 194.754V204.63H714.5V194.754H720.615Z" stroke="#5E0F00" stroke-opacity="0.2"/>
<path d="M778.896 219.872V212.783H771.84V189.766H778.896V182.597H801.628V189.766H808.763V212.783H801.628V219.872H778.896ZM780.465 210.955H800.059V191.52H780.465V210.955Z" fill="#5E0F00" fill-opacity="0.2"/>
<path d="M801.129 183.097V190.266H808.262V212.283H801.129V219.372H779.395V212.283H772.34V190.266H779.395V183.097H801.129ZM779.965 211.454H800.559V191.02H779.965V211.454Z" stroke="#5E0F00" stroke-opacity="0.2"/>
<path d="M736.427 219.872V212.783H729.371V189.766H736.427V182.597H759.16V189.766H766.294V212.783H759.16V219.872H736.427ZM737.996 210.955H757.596V191.52H737.996V210.955Z" fill="#5E0F00" fill-opacity="0.2"/>
<path d="M758.66 183.097V190.266H765.794V212.283H758.66V219.372H736.927V212.283H729.871V190.266H736.927V183.097H758.66ZM737.496 211.454H758.096V191.02H737.496V211.454Z" stroke="#5E0F00" stroke-opacity="0.2"/>
<path d="M940.851 165.5V174.313H1005.15V165.5H1020.38V228.813H1004.15V232.5H941.851V228.813H925.615V165.5H940.851ZM1027.5 209.705V219.581H1021.38V209.705H1027.5ZM924.615 209.705V219.581H918.5V209.705H924.615ZM1027.5 194.754V204.63H1021.38V194.754H1027.5ZM924.615 194.754V204.63H918.5V194.754H924.615Z" fill="#5E0F00" stroke="#5E0F00"/>
<path d="M982.896 219.872V212.783H975.84V189.766H982.896V182.597H1005.63V189.766H1012.76V212.783H1005.63V219.872H982.896ZM984.465 210.955H1004.06V191.52H984.465V210.955Z" fill="white"/>
<path d="M940.427 219.872V212.783H933.371V189.766H940.427V182.597H963.16V189.766H970.294V212.783H963.16V219.872H940.427ZM941.996 210.955H961.596V191.52H941.996V210.955Z" fill="white"/>
<path d="M838.851 110.5V119.313H903.15V110.5H918.385V173.813H902.15V177.5H839.851V173.813H823.615V110.5H838.851ZM925.5 154.705V164.581H919.385V154.705H925.5ZM822.615 154.705V164.581H816.5V154.705H822.615ZM925.5 139.754V149.63H919.385V139.754H925.5ZM822.615 139.754V149.63H816.5V139.754H822.615Z" stroke="#5E0F00" stroke-opacity="0.4"/>
<path d="M880.896 164.872V157.783H873.84V134.766H880.896V127.597H903.628V134.766H910.763V157.783H903.628V164.872H880.896ZM882.465 155.955H902.059V136.52H882.465V155.955Z" fill="#5E0F00" fill-opacity="0.4"/>
<path d="M903.129 128.097V135.266H910.262V157.283H903.129V164.372H881.395V157.283H874.34V135.266H881.395V128.097H903.129ZM881.965 156.454H902.559V136.02H881.965V156.454Z" stroke="#5E0F00" stroke-opacity="0.4"/>
<path d="M838.427 164.872V157.783H831.371V134.766H838.427V127.597H861.16V134.766H868.294V157.783H861.16V164.872H838.427ZM839.996 155.955H859.596V136.52H839.996V155.955Z" fill="#5E0F00" fill-opacity="0.4"/>
<path d="M860.66 128.097V135.266H867.794V157.283H860.66V164.372H838.927V157.283H831.871V135.266H838.927V128.097H860.66ZM839.496 156.454H860.096V136.02H839.496V156.454Z" stroke="#5E0F00" stroke-opacity="0.4"/>
<path d="M1042.85 110.5V119.313H1107.15V110.5H1122.38V173.813H1106.15V177.5H1043.85V173.813H1027.62V110.5H1042.85ZM1129.5 154.705V164.581H1123.38V154.705H1129.5ZM1026.62 154.705V164.581H1020.5V154.705H1026.62ZM1129.5 139.754V149.63H1123.38V139.754H1129.5ZM1026.62 139.754V149.63H1020.5V139.754H1026.62Z" stroke="#5E0F00" stroke-opacity="0.4"/>
<path d="M1084.9 164.872V157.783H1077.84V134.766H1084.9V127.597H1107.63V134.766H1114.76V157.783H1107.63V164.872H1084.9ZM1086.46 155.955H1106.06V136.52H1086.46V155.955Z" fill="#5E0F00" fill-opacity="0.4"/>
<path d="M1107.13 128.097V135.266H1114.26V157.283H1107.13V164.372H1085.4V157.283H1078.34V135.266H1085.4V128.097H1107.13ZM1085.96 156.454H1106.56V136.02H1085.96V156.454Z" stroke="#5E0F00" stroke-opacity="0.4"/>
<path d="M1042.43 164.872V157.783H1035.37V134.766H1042.43V127.597H1065.16V134.766H1072.29V157.783H1065.16V164.872H1042.43ZM1044 155.955H1063.6V136.52H1044V155.955Z" fill="#5E0F00" fill-opacity="0.4"/>
<path d="M1064.66 128.097V135.266H1071.79V157.283H1064.66V164.372H1042.93V157.283H1035.87V135.266H1042.93V128.097H1064.66ZM1043.5 156.454H1064.1V136.02H1043.5V156.454Z" stroke="#5E0F00" stroke-opacity="0.4"/>
<path d="M1144.85 165.5V174.313H1209.15V165.5H1224.38V228.813H1208.15V232.5H1145.85V228.813H1129.62V165.5H1144.85ZM1231.5 209.705V219.581H1225.38V209.705H1231.5ZM1128.62 209.705V219.581H1122.5V209.705H1128.62ZM1231.5 194.754V204.63H1225.38V194.754H1231.5ZM1128.62 194.754V204.63H1122.5V194.754H1128.62Z" stroke="#5E0F00" stroke-opacity="0.2"/>
<path d="M1186.9 219.872V212.783H1179.84V189.766H1186.9V182.597H1209.63V189.766H1216.76V212.783H1209.63V219.872H1186.9ZM1188.46 210.955H1208.06V191.52H1188.46V210.955Z" fill="#5E0F00" fill-opacity="0.2"/>
<path d="M1209.13 183.097V190.266H1216.26V212.283H1209.13V219.372H1187.4V212.283H1180.34V190.266H1187.4V183.097H1209.13ZM1187.96 211.454H1208.56V191.02H1187.96V211.454Z" stroke="#5E0F00" stroke-opacity="0.2"/>
<path d="M1144.43 219.872V212.783H1137.37V189.766H1144.43V182.597H1167.16V189.766H1174.29V212.783H1167.16V219.872H1144.43ZM1146 210.955H1165.6V191.52H1146V210.955Z" fill="#5E0F00" fill-opacity="0.2"/>
<path d="M1166.66 183.097V190.266H1173.79V212.283H1166.66V219.372H1144.93V212.283H1137.87V190.266H1144.93V183.097H1166.66ZM1145.5 211.454H1166.1V191.02H1145.5V211.454Z" stroke="#5E0F00" stroke-opacity="0.2"/>
<path d="M1348.85 165.5V174.313H1413.15V165.5H1428.38V228.813H1412.15V232.5H1349.85V228.813H1333.62V165.5H1348.85ZM1435.5 209.705V219.581H1429.38V209.705H1435.5ZM1332.62 209.705V219.581H1326.5V209.705H1332.62ZM1435.5 194.754V204.63H1429.38V194.754H1435.5ZM1332.62 194.754V204.63H1326.5V194.754H1332.62Z" stroke="#5E0F00" stroke-opacity="0.1"/>
<path d="M1390.9 219.872V212.783H1383.84V189.766H1390.9V182.597H1413.63V189.766H1420.76V212.783H1413.63V219.872H1390.9ZM1392.46 210.955H1412.06V191.52H1392.46V210.955Z" fill="#5E0F00" fill-opacity="0.1"/>
<path d="M1413.13 183.097V190.266H1420.26V212.283H1413.13V219.372H1391.4V212.283H1384.34V190.266H1391.4V183.097H1413.13ZM1391.96 211.454H1412.56V191.02H1391.96V211.454Z" stroke="#5E0F00" stroke-opacity="0.1"/>
<path d="M1348.43 219.872V212.783H1341.37V189.766H1348.43V182.597H1371.16V189.766H1378.29V212.783H1371.16V219.872H1348.43ZM1350 210.955H1369.6V191.52H1350V210.955Z" fill="#5E0F00" fill-opacity="0.1"/>
<path d="M1370.66 183.097V190.266H1377.79V212.283H1370.66V219.372H1348.93V212.283H1341.87V190.266H1348.93V183.097H1370.66ZM1349.5 211.454H1370.1V191.02H1349.5V211.454Z" stroke="#5E0F00" stroke-opacity="0.1"/>
<path d="M1246.85 110.5V119.313H1311.15V110.5H1326.38V173.813H1310.15V177.5H1247.85V173.813H1231.62V110.5H1246.85ZM1333.5 154.705V164.581H1327.38V154.705H1333.5ZM1230.62 154.705V164.581H1224.5V154.705H1230.62ZM1333.5 139.754V149.63H1327.38V139.754H1333.5ZM1230.62 139.754V149.63H1224.5V139.754H1230.62Z" stroke="#5E0F00" stroke-opacity="0.1"/>
<path d="M1288.9 164.872V157.783H1281.84V134.766H1288.9V127.597H1311.63V134.766H1318.76V157.783H1311.63V164.872H1288.9ZM1290.46 155.955H1310.06V136.52H1290.46V155.955Z" fill="#5E0F00" fill-opacity="0.1"/>
<path d="M1311.13 128.097V135.266H1318.26V157.283H1311.13V164.372H1289.4V157.283H1282.34V135.266H1289.4V128.097H1311.13ZM1289.96 156.454H1310.56V136.02H1289.96V156.454Z" stroke="#5E0F00" stroke-opacity="0.1"/>
<path d="M1246.43 164.872V157.783H1239.37V134.766H1246.43V127.597H1269.16V134.766H1276.29V157.783H1269.16V164.872H1246.43ZM1248 155.955H1267.6V136.52H1248V155.955Z" fill="#5E0F00" fill-opacity="0.1"/>
<path d="M1268.66 128.097V135.266H1275.79V157.283H1268.66V164.372H1246.93V157.283H1239.87V135.266H1246.93V128.097H1268.66ZM1247.5 156.454H1268.1V136.02H1247.5V156.454Z" stroke="#5E0F00" stroke-opacity="0.1"/>
<path d="M634.851 0.5V9.31348H699.15V0.5H714.385V63.8135H698.15V67.5H635.851V63.8135H619.615V0.5H634.851ZM721.5 44.7051V54.5811H715.385V44.7051H721.5ZM618.615 44.7051V54.5811H612.5V44.7051H618.615ZM721.5 29.7539V39.6299H715.385V29.7539H721.5ZM618.615 29.7539V39.6299H612.5V29.7539H618.615Z" stroke="#5E0F00" stroke-opacity="0.1"/>
<path d="M676.896 54.8724V47.7829H669.84V24.7659H676.896V17.5967H699.628V24.7659H706.763V47.7829H699.628V54.8724H676.896ZM678.465 45.9545H698.059V26.5195H678.465V45.9545Z" fill="#5E0F00" fill-opacity="0.1"/>
<path d="M699.129 18.0967V25.2656H706.262V47.2832H699.129V54.3721H677.395V47.2832H670.34V25.2656H677.395V18.0967H699.129ZM677.965 46.4541H698.559V26.0195H677.965V46.4541Z" stroke="#5E0F00" stroke-opacity="0.1"/>
<path d="M634.427 54.8724V47.7829H627.371V24.7659H634.427V17.5967H657.16V24.7659H664.294V47.7829H657.16V54.8724H634.427ZM635.996 45.9545H655.596V26.5195H635.996V45.9545Z" fill="#5E0F00" fill-opacity="0.1"/>
<path d="M656.66 18.0967V25.2656H663.794V47.2832H656.66V54.3721H634.927V47.2832H627.871V25.2656H634.927V18.0967H656.66ZM635.496 46.4541H656.096V26.0195H635.496V46.4541Z" stroke="#5E0F00" stroke-opacity="0.1"/>
<path d="M736.851 55.5V64.3135H801.15V55.5H816.385V118.813H800.15V122.5H737.851V118.813H721.615V55.5H736.851ZM823.5 99.7051V109.581H817.385V99.7051H823.5ZM720.615 99.7051V109.581H714.5V99.7051H720.615ZM823.5 84.7539V94.6299H817.385V84.7539H823.5ZM720.615 84.7539V94.6299H714.5V84.7539H720.615Z" stroke="#5E0F00" stroke-opacity="0.2"/>
<path d="M778.896 109.872V102.783H771.84V79.7659H778.896V72.5967H801.628V79.7659H808.763V102.783H801.628V109.872H778.896ZM780.465 100.955H800.059V81.5195H780.465V100.955Z" fill="#5E0F00" fill-opacity="0.2"/>
<path d="M801.129 73.0967V80.2656H808.262V102.283H801.129V109.372H779.395V102.283H772.34V80.2656H779.395V73.0967H801.129ZM779.965 101.454H800.559V81.0195H779.965V101.454Z" stroke="#5E0F00" stroke-opacity="0.2"/>
<path d="M736.427 109.872V102.783H729.371V79.7659H736.427V72.5967H759.16V79.7659H766.294V102.783H759.16V109.872H736.427ZM737.996 100.955H757.596V81.5195H737.996V100.955Z" fill="#5E0F00" fill-opacity="0.2"/>
<path d="M758.66 73.0967V80.2656H765.794V102.283H758.66V109.372H736.927V102.283H729.871V80.2656H736.927V73.0967H758.66ZM737.496 101.454H758.096V81.0195H737.496V101.454Z" stroke="#5E0F00" stroke-opacity="0.2"/>
<path d="M940.851 55.5V64.3135H1005.15V55.5H1020.38V118.813H1004.15V122.5H941.851V118.813H925.615V55.5H940.851ZM1027.5 99.7051V109.581H1021.38V99.7051H1027.5ZM924.615 99.7051V109.581H918.5V99.7051H924.615ZM1027.5 84.7539V94.6299H1021.38V84.7539H1027.5ZM924.615 84.7539V94.6299H918.5V84.7539H924.615Z" stroke="#5E0F00" stroke-opacity="0.4"/>
<path d="M982.896 109.872V102.783H975.84V79.7659H982.896V72.5967H1005.63V79.7659H1012.76V102.783H1005.63V109.872H982.896ZM984.465 100.955H1004.06V81.5195H984.465V100.955Z" fill="#5E0F00" fill-opacity="0.4"/>
<path d="M1005.13 73.0967V80.2656H1012.26V102.283H1005.13V109.372H983.395V102.283H976.34V80.2656H983.395V73.0967H1005.13ZM983.965 101.454H1004.56V81.0195H983.965V101.454Z" stroke="#5E0F00" stroke-opacity="0.4"/>
<path d="M940.427 109.872V102.783H933.371V79.7659H940.427V72.5967H963.16V79.7659H970.294V102.783H963.16V109.872H940.427ZM941.996 100.955H961.596V81.5195H941.996V100.955Z" fill="#5E0F00" fill-opacity="0.4"/>
<path d="M962.66 73.0967V80.2656H969.794V102.283H962.66V109.372H940.927V102.283H933.871V80.2656H940.927V73.0967H962.66ZM941.496 101.454H962.096V81.0195H941.496V101.454Z" stroke="#5E0F00" stroke-opacity="0.4"/>
<path d="M838.851 0.5V9.31348H903.15V0.5H918.385V63.8135H902.15V67.5H839.851V63.8135H823.615V0.5H838.851ZM925.5 44.7051V54.5811H919.385V44.7051H925.5ZM822.615 44.7051V54.5811H816.5V44.7051H822.615ZM925.5 29.7539V39.6299H919.385V29.7539H925.5ZM822.615 29.7539V39.6299H816.5V29.7539H822.615Z" stroke="#5E0F00" stroke-opacity="0.4"/>
<path d="M880.896 54.8724V47.7829H873.84V24.7659H880.896V17.5967H903.628V24.7659H910.763V47.7829H903.628V54.8724H880.896ZM882.465 45.9545H902.059V26.5195H882.465V45.9545Z" fill="#5E0F00" fill-opacity="0.4"/>
<path d="M903.129 18.0967V25.2656H910.262V47.2832H903.129V54.3721H881.395V47.2832H874.34V25.2656H881.395V18.0967H903.129ZM881.965 46.4541H902.559V26.0195H881.965V46.4541Z" stroke="#5E0F00" stroke-opacity="0.4"/>
<path d="M838.427 54.8724V47.7829H831.371V24.7659H838.427V17.5967H861.16V24.7659H868.294V47.7829H861.16V54.8724H838.427ZM839.996 45.9545H859.596V26.5195H839.996V45.9545Z" fill="#5E0F00" fill-opacity="0.4"/>
<path d="M860.66 18.0967V25.2656H867.794V47.2832H860.66V54.3721H838.927V47.2832H831.871V25.2656H838.927V18.0967H860.66ZM839.496 46.4541H860.096V26.0195H839.496V46.4541Z" stroke="#5E0F00" stroke-opacity="0.4"/>
<path d="M1042.85 0.5V9.31348H1107.15V0.5H1122.38V63.8135H1106.15V67.5H1043.85V63.8135H1027.62V0.5H1042.85ZM1129.5 44.7051V54.5811H1123.38V44.7051H1129.5ZM1026.62 44.7051V54.5811H1020.5V44.7051H1026.62ZM1129.5 29.7539V39.6299H1123.38V29.7539H1129.5ZM1026.62 29.7539V39.6299H1020.5V29.7539H1026.62Z" stroke="#5E0F00" stroke-opacity="0.4"/>
<path d="M1084.9 54.8724V47.7829H1077.84V24.7659H1084.9V17.5967H1107.63V24.7659H1114.76V47.7829H1107.63V54.8724H1084.9ZM1086.46 45.9545H1106.06V26.5195H1086.46V45.9545Z" fill="#5E0F00" fill-opacity="0.4"/>
<path d="M1107.13 18.0967V25.2656H1114.26V47.2832H1107.13V54.3721H1085.4V47.2832H1078.34V25.2656H1085.4V18.0967H1107.13ZM1085.96 46.4541H1106.56V26.0195H1085.96V46.4541Z" stroke="#5E0F00" stroke-opacity="0.4"/>
<path d="M1042.43 54.8724V47.7829H1035.37V24.7659H1042.43V17.5967H1065.16V24.7659H1072.29V47.7829H1065.16V54.8724H1042.43ZM1044 45.9545H1063.6V26.5195H1044V45.9545Z" fill="#5E0F00" fill-opacity="0.4"/>
<path d="M1064.66 18.0967V25.2656H1071.79V47.2832H1064.66V54.3721H1042.93V47.2832H1035.87V25.2656H1042.93V18.0967H1064.66ZM1043.5 46.4541H1064.1V26.0195H1043.5V46.4541Z" stroke="#5E0F00" stroke-opacity="0.4"/>
<path d="M1144.85 55.5V64.3135H1209.15V55.5H1224.38V118.813H1208.15V122.5H1145.85V118.813H1129.62V55.5H1144.85ZM1231.5 99.7051V109.581H1225.38V99.7051H1231.5ZM1128.62 99.7051V109.581H1122.5V99.7051H1128.62ZM1231.5 84.7539V94.6299H1225.38V84.7539H1231.5ZM1128.62 84.7539V94.6299H1122.5V84.7539H1128.62Z" stroke="#5E0F00" stroke-opacity="0.2"/>
<path d="M1186.9 109.872V102.783H1179.84V79.7659H1186.9V72.5967H1209.63V79.7659H1216.76V102.783H1209.63V109.872H1186.9ZM1188.46 100.955H1208.06V81.5195H1188.46V100.955Z" fill="#5E0F00" fill-opacity="0.2"/>
<path d="M1209.13 73.0967V80.2656H1216.26V102.283H1209.13V109.372H1187.4V102.283H1180.34V80.2656H1187.4V73.0967H1209.13ZM1187.96 101.454H1208.56V81.0195H1187.96V101.454Z" stroke="#5E0F00" stroke-opacity="0.2"/>
<path d="M1144.43 109.872V102.783H1137.37V79.7659H1144.43V72.5967H1167.16V79.7659H1174.29V102.783H1167.16V109.872H1144.43ZM1146 100.955H1165.6V81.5195H1146V100.955Z" fill="#5E0F00" fill-opacity="0.2"/>
<path d="M1166.66 73.0967V80.2656H1173.79V102.283H1166.66V109.372H1144.93V102.283H1137.87V80.2656H1144.93V73.0967H1166.66ZM1145.5 101.454H1166.1V81.0195H1145.5V101.454Z" stroke="#5E0F00" stroke-opacity="0.2"/>
<path d="M1348.85 55.5V64.3135H1413.15V55.5H1428.38V118.813H1412.15V122.5H1349.85V118.813H1333.62V55.5H1348.85ZM1435.5 99.7051V109.581H1429.38V99.7051H1435.5ZM1332.62 99.7051V109.581H1326.5V99.7051H1332.62ZM1435.5 84.7539V94.6299H1429.38V84.7539H1435.5ZM1332.62 84.7539V94.6299H1326.5V84.7539H1332.62Z" stroke="#5E0F00" stroke-opacity="0.1"/>
<path d="M1390.9 109.872V102.783H1383.84V79.7659H1390.9V72.5967H1413.63V79.7659H1420.76V102.783H1413.63V109.872H1390.9ZM1392.46 100.955H1412.06V81.5195H1392.46V100.955Z" fill="#5E0F00" fill-opacity="0.1"/>
<path d="M1413.13 73.0967V80.2656H1420.26V102.283H1413.13V109.372H1391.4V102.283H1384.34V80.2656H1391.4V73.0967H1413.13ZM1391.96 101.454H1412.56V81.0195H1391.96V101.454Z" stroke="#5E0F00" stroke-opacity="0.1"/>
<path d="M1348.43 109.872V102.783H1341.37V79.7659H1348.43V72.5967H1371.16V79.7659H1378.29V102.783H1371.16V109.872H1348.43ZM1350 100.955H1369.6V81.5195H1350V100.955Z" fill="#5E0F00" fill-opacity="0.1"/>
<path d="M1370.66 73.0967V80.2656H1377.79V102.283H1370.66V109.372H1348.93V102.283H1341.87V80.2656H1348.93V73.0967H1370.66ZM1349.5 101.454H1370.1V81.0195H1349.5V101.454Z" stroke="#5E0F00" stroke-opacity="0.1"/>
<path d="M1246.85 0.5V9.31348H1311.15V0.5H1326.38V63.8135H1310.15V67.5H1247.85V63.8135H1231.62V0.5H1246.85ZM1333.5 44.7051V54.5811H1327.38V44.7051H1333.5ZM1230.62 44.7051V54.5811H1224.5V44.7051H1230.62ZM1333.5 29.7539V39.6299H1327.38V29.7539H1333.5ZM1230.62 29.7539V39.6299H1224.5V29.7539H1230.62Z" stroke="#5E0F00" stroke-opacity="0.1"/>
<path d="M1288.9 54.8724V47.7829H1281.84V24.7659H1288.9V17.5967H1311.63V24.7659H1318.76V47.7829H1311.63V54.8724H1288.9ZM1290.46 45.9545H1310.06V26.5195H1290.46V45.9545Z" fill="#5E0F00" fill-opacity="0.1"/>
<path d="M1311.13 18.0967V25.2656H1318.26V47.2832H1311.13V54.3721H1289.4V47.2832H1282.34V25.2656H1289.4V18.0967H1311.13ZM1289.96 46.4541H1310.56V26.0195H1289.96V46.4541Z" stroke="#5E0F00" stroke-opacity="0.1"/>
<path d="M1246.43 54.8724V47.7829H1239.37V24.7659H1246.43V17.5967H1269.16V24.7659H1276.29V47.7829H1269.16V54.8724H1246.43ZM1248 45.9545H1267.6V26.5195H1248V45.9545Z" fill="#5E0F00" fill-opacity="0.1"/>
<path d="M1268.66 18.0967V25.2656H1275.79V47.2832H1268.66V54.3721H1246.93V47.2832H1239.87V25.2656H1246.93V18.0967H1268.66ZM1247.5 46.4541H1268.1V26.0195H1247.5V46.4541Z" stroke="#5E0F00" stroke-opacity="0.1"/>
<path d="M634.851 220.5V229.313H699.15V220.5H714.385V283.813H698.15V287.5H635.851V283.813H619.615V220.5H634.851ZM721.5 264.705V274.581H715.385V264.705H721.5ZM618.615 264.705V274.581H612.5V264.705H618.615ZM721.5 249.754V259.63H715.385V249.754H721.5ZM618.615 249.754V259.63H612.5V249.754H618.615Z" stroke="#5E0F00" stroke-opacity="0.1"/>
<path d="M676.896 274.872V267.783H669.84V244.766H676.896V237.597H699.628V244.766H706.763V267.783H699.628V274.872H676.896ZM678.465 265.955H698.059V246.52H678.465V265.955Z" fill="#5E0F00" fill-opacity="0.1"/>
<path d="M699.129 238.097V245.266H706.262V267.283H699.129V274.372H677.395V267.283H670.34V245.266H677.395V238.097H699.129ZM677.965 266.454H698.559V246.02H677.965V266.454Z" stroke="#5E0F00" stroke-opacity="0.1"/>
<path d="M634.427 274.872V267.783H627.371V244.766H634.427V237.597H657.16V244.766H664.294V267.783H657.16V274.872H634.427ZM635.996 265.955H655.596V246.52H635.996V265.955Z" fill="#5E0F00" fill-opacity="0.1"/>
<path d="M656.66 238.097V245.266H663.794V267.283H656.66V274.372H634.927V267.283H627.871V245.266H634.927V238.097H656.66ZM635.496 266.454H656.096V246.02H635.496V266.454Z" stroke="#5E0F00" stroke-opacity="0.1"/>
<path d="M736.851 275.5V284.313H801.15V275.5H816.385V338.813H800.15V342.5H737.851V338.813H721.615V275.5H736.851ZM823.5 319.705V329.581H817.385V319.705H823.5ZM720.615 319.705V329.581H714.5V319.705H720.615ZM823.5 304.754V314.63H817.385V304.754H823.5ZM720.615 304.754V314.63H714.5V304.754H720.615Z" stroke="#5E0F00" stroke-opacity="0.2"/>
<path d="M778.896 329.872V322.783H771.84V299.766H778.896V292.597H801.628V299.766H808.763V322.783H801.628V329.872H778.896ZM780.465 320.955H800.059V301.52H780.465V320.955Z" fill="#5E0F00" fill-opacity="0.2"/>
<path d="M801.129 293.097V300.266H808.262V322.283H801.129V329.372H779.395V322.283H772.34V300.266H779.395V293.097H801.129ZM779.965 321.454H800.559V301.02H779.965V321.454Z" stroke="#5E0F00" stroke-opacity="0.2"/>
<path d="M736.427 329.872V322.783H729.371V299.766H736.427V292.597H759.16V299.766H766.294V322.783H759.16V329.872H736.427ZM737.996 320.955H757.596V301.52H737.996V320.955Z" fill="#5E0F00" fill-opacity="0.2"/>
<path d="M758.66 293.097V300.266H765.794V322.283H758.66V329.372H736.927V322.283H729.871V300.266H736.927V293.097H758.66ZM737.496 321.454H758.096V301.02H737.496V321.454Z" stroke="#5E0F00" stroke-opacity="0.2"/>
<path d="M940.851 275.5V284.313H1005.15V275.5H1020.38V338.813H1004.15V342.5H941.851V338.813H925.615V275.5H940.851ZM1027.5 319.705V329.581H1021.38V319.705H1027.5ZM924.615 319.705V329.581H918.5V319.705H924.615ZM1027.5 304.754V314.63H1021.38V304.754H1027.5ZM924.615 304.754V314.63H918.5V304.754H924.615Z" stroke="#5E0F00" stroke-opacity="0.4"/>
<path d="M982.896 329.872V322.783H975.84V299.766H982.896V292.597H1005.63V299.766H1012.76V322.783H1005.63V329.872H982.896ZM984.465 320.955H1004.06V301.52H984.465V320.955Z" fill="#5E0F00" fill-opacity="0.4"/>
<path d="M1005.13 293.097V300.266H1012.26V322.283H1005.13V329.372H983.395V322.283H976.34V300.266H983.395V293.097H1005.13ZM983.965 321.454H1004.56V301.02H983.965V321.454Z" stroke="#5E0F00" stroke-opacity="0.4"/>
<path d="M940.427 329.872V322.783H933.371V299.766H940.427V292.597H963.16V299.766H970.294V322.783H963.16V329.872H940.427ZM941.996 320.955H961.596V301.52H941.996V320.955Z" fill="#5E0F00" fill-opacity="0.4"/>
<path d="M962.66 293.097V300.266H969.794V322.283H962.66V329.372H940.927V322.283H933.871V300.266H940.927V293.097H962.66ZM941.496 321.454H962.096V301.02H941.496V321.454Z" stroke="#5E0F00" stroke-opacity="0.4"/>
<path d="M838.851 220.5V229.313H903.15V220.5H918.385V283.813H902.15V287.5H839.851V283.813H823.615V220.5H838.851ZM925.5 264.705V274.581H919.385V264.705H925.5ZM822.615 264.705V274.581H816.5V264.705H822.615ZM925.5 249.754V259.63H919.385V249.754H925.5ZM822.615 249.754V259.63H816.5V249.754H822.615Z" stroke="#5E0F00" stroke-opacity="0.4"/>
<path d="M880.896 274.872V267.783H873.84V244.766H880.896V237.597H903.628V244.766H910.763V267.783H903.628V274.872H880.896ZM882.465 265.955H902.059V246.52H882.465V265.955Z" fill="#5E0F00" fill-opacity="0.4"/>
<path d="M903.129 238.097V245.266H910.262V267.283H903.129V274.372H881.395V267.283H874.34V245.266H881.395V238.097H903.129ZM881.965 266.454H902.559V246.02H881.965V266.454Z" stroke="#5E0F00" stroke-opacity="0.4"/>
<path d="M838.427 274.872V267.783H831.371V244.766H838.427V237.597H861.16V244.766H868.294V267.783H861.16V274.872H838.427ZM839.996 265.955H859.596V246.52H839.996V265.955Z" fill="#5E0F00" fill-opacity="0.4"/>
<path d="M860.66 238.097V245.266H867.794V267.283H860.66V274.372H838.927V267.283H831.871V245.266H838.927V238.097H860.66ZM839.496 266.454H860.096V246.02H839.496V266.454Z" stroke="#5E0F00" stroke-opacity="0.4"/>
<path d="M1042.85 220.5V229.313H1107.15V220.5H1122.38V283.813H1106.15V287.5H1043.85V283.813H1027.62V220.5H1042.85ZM1129.5 264.705V274.581H1123.38V264.705H1129.5ZM1026.62 264.705V274.581H1020.5V264.705H1026.62ZM1129.5 249.754V259.63H1123.38V249.754H1129.5ZM1026.62 249.754V259.63H1020.5V249.754H1026.62Z" stroke="#5E0F00" stroke-opacity="0.4"/>
<path d="M1084.9 274.872V267.783H1077.84V244.766H1084.9V237.597H1107.63V244.766H1114.76V267.783H1107.63V274.872H1084.9ZM1086.46 265.955H1106.06V246.52H1086.46V265.955Z" fill="#5E0F00" fill-opacity="0.4"/>
<path d="M1107.13 238.097V245.266H1114.26V267.283H1107.13V274.372H1085.4V267.283H1078.34V245.266H1085.4V238.097H1107.13ZM1085.96 266.454H1106.56V246.02H1085.96V266.454Z" stroke="#5E0F00" stroke-opacity="0.4"/>
<path d="M1042.43 274.872V267.783H1035.37V244.766H1042.43V237.597H1065.16V244.766H1072.29V267.783H1065.16V274.872H1042.43ZM1044 265.955H1063.6V246.52H1044V265.955Z" fill="#5E0F00" fill-opacity="0.4"/>
<path d="M1064.66 238.097V245.266H1071.79V267.283H1064.66V274.372H1042.93V267.283H1035.87V245.266H1042.93V238.097H1064.66ZM1043.5 266.454H1064.1V246.02H1043.5V266.454Z" stroke="#5E0F00" stroke-opacity="0.4"/>
<path d="M1144.85 275.5V284.313H1209.15V275.5H1224.38V338.813H1208.15V342.5H1145.85V338.813H1129.62V275.5H1144.85ZM1231.5 319.705V329.581H1225.38V319.705H1231.5ZM1128.62 319.705V329.581H1122.5V319.705H1128.62ZM1231.5 304.754V314.63H1225.38V304.754H1231.5ZM1128.62 304.754V314.63H1122.5V304.754H1128.62Z" stroke="#5E0F00" stroke-opacity="0.2"/>
<path d="M1186.9 329.872V322.783H1179.84V299.766H1186.9V292.597H1209.63V299.766H1216.76V322.783H1209.63V329.872H1186.9ZM1188.46 320.955H1208.06V301.52H1188.46V320.955Z" fill="#5E0F00" fill-opacity="0.2"/>
<path d="M1209.13 293.097V300.266H1216.26V322.283H1209.13V329.372H1187.4V322.283H1180.34V300.266H1187.4V293.097H1209.13ZM1187.96 321.454H1208.56V301.02H1187.96V321.454Z" stroke="#5E0F00" stroke-opacity="0.2"/>
<path d="M1144.43 329.872V322.783H1137.37V299.766H1144.43V292.597H1167.16V299.766H1174.29V322.783H1167.16V329.872H1144.43ZM1146 320.955H1165.6V301.52H1146V320.955Z" fill="#5E0F00" fill-opacity="0.2"/>
<path d="M1166.66 293.097V300.266H1173.79V322.283H1166.66V329.372H1144.93V322.283H1137.87V300.266H1144.93V293.097H1166.66ZM1145.5 321.454H1166.1V301.02H1145.5V321.454Z" stroke="#5E0F00" stroke-opacity="0.2"/>
<path d="M1348.85 275.5V284.313H1413.15V275.5H1428.38V338.813H1412.15V342.5H1349.85V338.813H1333.62V275.5H1348.85ZM1435.5 319.705V329.581H1429.38V319.705H1435.5ZM1332.62 319.705V329.581H1326.5V319.705H1332.62ZM1435.5 304.754V314.63H1429.38V304.754H1435.5ZM1332.62 304.754V314.63H1326.5V304.754H1332.62Z" stroke="#5E0F00" stroke-opacity="0.1"/>
<path d="M1390.9 329.872V322.783H1383.84V299.766H1390.9V292.597H1413.63V299.766H1420.76V322.783H1413.63V329.872H1390.9ZM1392.46 320.955H1412.06V301.52H1392.46V320.955Z" fill="#5E0F00" fill-opacity="0.1"/>
<path d="M1413.13 293.097V300.266H1420.26V322.283H1413.13V329.372H1391.4V322.283H1384.34V300.266H1391.4V293.097H1413.13ZM1391.96 321.454H1412.56V301.02H1391.96V321.454Z" stroke="#5E0F00" stroke-opacity="0.1"/>
<path d="M1348.43 329.872V322.783H1341.37V299.766H1348.43V292.597H1371.16V299.766H1378.29V322.783H1371.16V329.872H1348.43ZM1350 320.955H1369.6V301.52H1350V320.955Z" fill="#5E0F00" fill-opacity="0.1"/>
<path d="M1370.66 293.097V300.266H1377.79V322.283H1370.66V329.372H1348.93V322.283H1341.87V300.266H1348.93V293.097H1370.66ZM1349.5 321.454H1370.1V301.02H1349.5V321.454Z" stroke="#5E0F00" stroke-opacity="0.1"/>
<path d="M1246.85 220.5V229.313H1311.15V220.5H1326.38V283.813H1310.15V287.5H1247.85V283.813H1231.62V220.5H1246.85ZM1333.5 264.705V274.581H1327.38V264.705H1333.5ZM1230.62 264.705V274.581H1224.5V264.705H1230.62ZM1333.5 249.754V259.63H1327.38V249.754H1333.5ZM1230.62 249.754V259.63H1224.5V249.754H1230.62Z" stroke="#5E0F00" stroke-opacity="0.1"/>
<path d="M1288.9 274.872V267.783H1281.84V244.766H1288.9V237.597H1311.63V244.766H1318.76V267.783H1311.63V274.872H1288.9ZM1290.46 265.955H1310.06V246.52H1290.46V265.955Z" fill="#5E0F00" fill-opacity="0.1"/>
<path d="M1311.13 238.097V245.266H1318.26V267.283H1311.13V274.372H1289.4V267.283H1282.34V245.266H1289.4V238.097H1311.13ZM1289.96 266.454H1310.56V246.02H1289.96V266.454Z" stroke="#5E0F00" stroke-opacity="0.1"/>
<path d="M1246.43 274.872V267.783H1239.37V244.766H1246.43V237.597H1269.16V244.766H1276.29V267.783H1269.16V274.872H1246.43ZM1248 265.955H1267.6V246.52H1248V265.955Z" fill="#5E0F00" fill-opacity="0.1"/>
<path d="M1268.66 238.097V245.266H1275.79V267.283H1268.66V274.372H1246.93V267.283H1239.87V245.266H1246.93V238.097H1268.66ZM1247.5 266.454H1268.1V246.02H1247.5V266.454Z" stroke="#5E0F00" stroke-opacity="0.1"/>
<path d="M634.851 330.5V339.313H699.15V330.5H714.385V393.813H698.15V397.5H635.851V393.813H619.615V330.5H634.851ZM721.5 374.705V384.581H715.385V374.705H721.5ZM618.615 374.705V384.581H612.5V374.705H618.615ZM721.5 359.754V369.63H715.385V359.754H721.5ZM618.615 359.754V369.63H612.5V359.754H618.615Z" stroke="#5E0F00" stroke-opacity="0.1"/>
<path d="M676.896 384.872V377.783H669.84V354.766H676.896V347.597H699.628V354.766H706.763V377.783H699.628V384.872H676.896ZM678.465 375.955H698.059V356.52H678.465V375.955Z" fill="#5E0F00" fill-opacity="0.1"/>
<path d="M699.129 348.097V355.266H706.262V377.283H699.129V384.372H677.395V377.283H670.34V355.266H677.395V348.097H699.129ZM677.965 376.454H698.559V356.02H677.965V376.454Z" stroke="#5E0F00" stroke-opacity="0.1"/>
<path d="M634.427 384.872V377.783H627.371V354.766H634.427V347.597H657.16V354.766H664.294V377.783H657.16V384.872H634.427ZM635.996 375.955H655.596V356.52H635.996V375.955Z" fill="#5E0F00" fill-opacity="0.1"/>
<path d="M656.66 348.097V355.266H663.794V377.283H656.66V384.372H634.927V377.283H627.871V355.266H634.927V348.097H656.66ZM635.496 376.454H656.096V356.02H635.496V376.454Z" stroke="#5E0F00" stroke-opacity="0.1"/>
<path d="M736.851 385.5V394.313H801.15V385.5H816.385V448.813H800.15V452.5H737.851V448.813H721.615V385.5H736.851ZM823.5 429.705V439.581H817.385V429.705H823.5ZM720.615 429.705V439.581H714.5V429.705H720.615ZM823.5 414.754V424.63H817.385V414.754H823.5ZM720.615 414.754V424.63H714.5V414.754H720.615Z" stroke="#5E0F00" stroke-opacity="0.2"/>
<path d="M778.896 439.872V432.783H771.84V409.766H778.896V402.597H801.628V409.766H808.763V432.783H801.628V439.872H778.896ZM780.465 430.955H800.059V411.52H780.465V430.955Z" fill="#5E0F00" fill-opacity="0.2"/>
<path d="M801.129 403.097V410.266H808.262V432.283H801.129V439.372H779.395V432.283H772.34V410.266H779.395V403.097H801.129ZM779.965 431.454H800.559V411.02H779.965V431.454Z" stroke="#5E0F00" stroke-opacity="0.2"/>
<path d="M736.427 439.872V432.783H729.371V409.766H736.427V402.597H759.16V409.766H766.294V432.783H759.16V439.872H736.427ZM737.996 430.955H757.596V411.52H737.996V430.955Z" fill="#5E0F00" fill-opacity="0.2"/>
<path d="M758.66 403.097V410.266H765.794V432.283H758.66V439.372H736.927V432.283H729.871V410.266H736.927V403.097H758.66ZM737.496 431.454H758.096V411.02H737.496V431.454Z" stroke="#5E0F00" stroke-opacity="0.2"/>
<path d="M940.851 385.5V394.313H1005.15V385.5H1020.38V448.813H1004.15V452.5H941.851V448.813H925.615V385.5H940.851ZM1027.5 429.705V439.581H1021.38V429.705H1027.5ZM924.615 429.705V439.581H918.5V429.705H924.615ZM1027.5 414.754V424.63H1021.38V414.754H1027.5ZM924.615 414.754V424.63H918.5V414.754H924.615Z" stroke="#5E0F00" stroke-opacity="0.4"/>
<path d="M982.896 439.872V432.783H975.84V409.766H982.896V402.597H1005.63V409.766H1012.76V432.783H1005.63V439.872H982.896ZM984.465 430.955H1004.06V411.52H984.465V430.955Z" fill="#5E0F00" fill-opacity="0.4"/>
<path d="M1005.13 403.097V410.266H1012.26V432.283H1005.13V439.372H983.395V432.283H976.34V410.266H983.395V403.097H1005.13ZM983.965 431.454H1004.56V411.02H983.965V431.454Z" stroke="#5E0F00" stroke-opacity="0.4"/>
<path d="M940.427 439.872V432.783H933.371V409.766H940.427V402.597H963.16V409.766H970.294V432.783H963.16V439.872H940.427ZM941.996 430.955H961.596V411.52H941.996V430.955Z" fill="#5E0F00" fill-opacity="0.4"/>
<path d="M962.66 403.097V410.266H969.794V432.283H962.66V439.372H940.927V432.283H933.871V410.266H940.927V403.097H962.66ZM941.496 431.454H962.096V411.02H941.496V431.454Z" stroke="#5E0F00" stroke-opacity="0.4"/>
<path d="M838.851 330.5V339.313H903.15V330.5H918.385V393.813H902.15V397.5H839.851V393.813H823.615V330.5H838.851ZM925.5 374.705V384.581H919.385V374.705H925.5ZM822.615 374.705V384.581H816.5V374.705H822.615ZM925.5 359.754V369.63H919.385V359.754H925.5ZM822.615 359.754V369.63H816.5V359.754H822.615Z" stroke="#5E0F00" stroke-opacity="0.4"/>
<path d="M880.896 384.872V377.783H873.84V354.766H880.896V347.597H903.628V354.766H910.763V377.783H903.628V384.872H880.896ZM882.465 375.955H902.059V356.52H882.465V375.955Z" fill="#5E0F00" fill-opacity="0.4"/>
<path d="M903.129 348.097V355.266H910.262V377.283H903.129V384.372H881.395V377.283H874.34V355.266H881.395V348.097H903.129ZM881.965 376.454H902.559V356.02H881.965V376.454Z" stroke="#5E0F00" stroke-opacity="0.4"/>
<path d="M838.427 384.872V377.783H831.371V354.766H838.427V347.597H861.16V354.766H868.294V377.783H861.16V384.872H838.427ZM839.996 375.955H859.596V356.52H839.996V375.955Z" fill="#5E0F00" fill-opacity="0.4"/>
<path d="M860.66 348.097V355.266H867.794V377.283H860.66V384.372H838.927V377.283H831.871V355.266H838.927V348.097H860.66ZM839.496 376.454H860.096V356.02H839.496V376.454Z" stroke="#5E0F00" stroke-opacity="0.4"/>
<path d="M838.851 440.5V449.313H903.15V440.5H918.385V503.813H902.15V507.5H839.851V503.813H823.615V440.5H838.851ZM925.5 484.705V494.581H919.385V484.705H925.5ZM822.615 484.705V494.581H816.5V484.705H822.615ZM925.5 469.754V479.63H919.385V469.754H925.5ZM822.615 469.754V479.63H816.5V469.754H822.615Z" stroke="#5E0F00" stroke-opacity="0.2"/>
<path d="M880.896 494.872V487.783H873.84V464.766H880.896V457.597H903.628V464.766H910.763V487.783H903.628V494.872H880.896ZM882.465 485.955H902.059V466.52H882.465V485.955Z" fill="#5E0F00" fill-opacity="0.2"/>
<path d="M903.129 458.097V465.266H910.262V487.283H903.129V494.372H881.395V487.283H874.34V465.266H881.395V458.097H903.129ZM881.965 486.454H902.559V466.02H881.965V486.454Z" stroke="#5E0F00" stroke-opacity="0.2"/>
<path d="M838.427 494.872V487.783H831.371V464.766H838.427V457.597H861.16V464.766H868.294V487.783H861.16V494.872H838.427ZM839.996 485.955H859.596V466.52H839.996V485.955Z" fill="#5E0F00" fill-opacity="0.2"/>
<path d="M860.66 458.097V465.266H867.794V487.283H860.66V494.372H838.927V487.283H831.871V465.266H838.927V458.097H860.66ZM839.496 486.454H860.096V466.02H839.496V486.454Z" stroke="#5E0F00" stroke-opacity="0.2"/>
<path d="M940.851 495.5V504.313H1005.15V495.5H1020.38V558.813H1004.15V562.5H941.851V558.813H925.615V495.5H940.851ZM1027.5 539.705V549.581H1021.38V539.705H1027.5ZM924.615 539.705V549.581H918.5V539.705H924.615ZM1027.5 524.754V534.63H1021.38V524.754H1027.5ZM924.615 524.754V534.63H918.5V524.754H924.615Z" stroke="#5E0F00" stroke-opacity="0.1"/>
<path d="M982.896 549.872V542.783H975.84V519.766H982.896V512.597H1005.63V519.766H1012.76V542.783H1005.63V549.872H982.896ZM984.465 540.955H1004.06V521.52H984.465V540.955Z" fill="#5E0F00" fill-opacity="0.1"/>
<path d="M1005.13 513.097V520.266H1012.26V542.283H1005.13V549.372H983.395V542.283H976.34V520.266H983.395V513.097H1005.13ZM983.965 541.454H1004.56V521.02H983.965V541.454Z" stroke="#5E0F00" stroke-opacity="0.1"/>
<path d="M940.427 549.872V542.783H933.371V519.766H940.427V512.597H963.16V519.766H970.294V542.783H963.16V549.872H940.427ZM941.996 540.955H961.596V521.52H941.996V540.955Z" fill="#5E0F00" fill-opacity="0.1"/>
<path d="M962.66 513.097V520.266H969.794V542.283H962.66V549.372H940.927V542.283H933.871V520.266H940.927V513.097H962.66ZM941.496 541.454H962.096V521.02H941.496V541.454Z" stroke="#5E0F00" stroke-opacity="0.1"/>
<path d="M1144.85 495.5V504.313H1209.15V495.5H1224.38V558.813H1208.15V562.5H1145.85V558.813H1129.62V495.5H1144.85ZM1231.5 539.705V549.581H1225.38V539.705H1231.5ZM1128.62 539.705V549.581H1122.5V539.705H1128.62ZM1231.5 524.754V534.63H1225.38V524.754H1231.5ZM1128.62 524.754V534.63H1122.5V524.754H1128.62Z" stroke="#5E0F00" stroke-opacity="0.2"/>
<path d="M1186.9 549.872V542.783H1179.84V519.766H1186.9V512.597H1209.63V519.766H1216.76V542.783H1209.63V549.872H1186.9ZM1188.46 540.955H1208.06V521.52H1188.46V540.955Z" fill="#5E0F00" fill-opacity="0.2"/>
<path d="M1209.13 513.097V520.266H1216.26V542.283H1209.13V549.372H1187.4V542.283H1180.34V520.266H1187.4V513.097H1209.13ZM1187.96 541.454H1208.56V521.02H1187.96V541.454Z" stroke="#5E0F00" stroke-opacity="0.2"/>
<path d="M1144.43 549.872V542.783H1137.37V519.766H1144.43V512.597H1167.16V519.766H1174.29V542.783H1167.16V549.872H1144.43ZM1146 540.955H1165.6V521.52H1146V540.955Z" fill="#5E0F00" fill-opacity="0.2"/>
<path d="M1166.66 513.097V520.266H1173.79V542.283H1166.66V549.372H1144.93V542.283H1137.87V520.266H1144.93V513.097H1166.66ZM1145.5 541.454H1166.1V521.02H1145.5V541.454Z" stroke="#5E0F00" stroke-opacity="0.2"/>
<path d="M1042.85 440.5V449.313H1107.15V440.5H1122.38V503.813H1106.15V507.5H1043.85V503.813H1027.62V440.5H1042.85ZM1129.5 484.705V494.581H1123.38V484.705H1129.5ZM1026.62 484.705V494.581H1020.5V484.705H1026.62ZM1129.5 469.754V479.63H1123.38V469.754H1129.5ZM1026.62 469.754V479.63H1020.5V469.754H1026.62Z" stroke="#5E0F00" stroke-opacity="0.2"/>
<path d="M1084.9 494.872V487.783H1077.84V464.766H1084.9V457.597H1107.63V464.766H1114.76V487.783H1107.63V494.872H1084.9ZM1086.46 485.955H1106.06V466.52H1086.46V485.955Z" fill="#5E0F00" fill-opacity="0.2"/>
<path d="M1107.13 458.097V465.266H1114.26V487.283H1107.13V494.372H1085.4V487.283H1078.34V465.266H1085.4V458.097H1107.13ZM1085.96 486.454H1106.56V466.02H1085.96V486.454Z" stroke="#5E0F00" stroke-opacity="0.2"/>
<path d="M1042.43 494.872V487.783H1035.37V464.766H1042.43V457.597H1065.16V464.766H1072.29V487.783H1065.16V494.872H1042.43ZM1044 485.955H1063.6V466.52H1044V485.955Z" fill="#5E0F00" fill-opacity="0.2"/>
<path d="M1064.66 458.097V465.266H1071.79V487.283H1064.66V494.372H1042.93V487.283H1035.87V465.266H1042.93V458.097H1064.66ZM1043.5 486.454H1064.1V466.02H1043.5V486.454Z" stroke="#5E0F00" stroke-opacity="0.2"/>
<path d="M1042.85 330.5V339.313H1107.15V330.5H1122.38V393.813H1106.15V397.5H1043.85V393.813H1027.62V330.5H1042.85ZM1129.5 374.705V384.581H1123.38V374.705H1129.5ZM1026.62 374.705V384.581H1020.5V374.705H1026.62ZM1129.5 359.754V369.63H1123.38V359.754H1129.5ZM1026.62 359.754V369.63H1020.5V359.754H1026.62Z" stroke="#5E0F00" stroke-opacity="0.4"/>
<path d="M1084.9 384.872V377.783H1077.84V354.766H1084.9V347.597H1107.63V354.766H1114.76V377.783H1107.63V384.872H1084.9ZM1086.46 375.955H1106.06V356.52H1086.46V375.955Z" fill="#5E0F00" fill-opacity="0.4"/>
<path d="M1107.13 348.097V355.266H1114.26V377.283H1107.13V384.372H1085.4V377.283H1078.34V355.266H1085.4V348.097H1107.13ZM1085.96 376.454H1106.56V356.02H1085.96V376.454Z" stroke="#5E0F00" stroke-opacity="0.4"/>
<path d="M1042.43 384.872V377.783H1035.37V354.766H1042.43V347.597H1065.16V354.766H1072.29V377.783H1065.16V384.872H1042.43ZM1044 375.955H1063.6V356.52H1044V375.955Z" fill="#5E0F00" fill-opacity="0.4"/>
<path d="M1064.66 348.097V355.266H1071.79V377.283H1064.66V384.372H1042.93V377.283H1035.87V355.266H1042.93V348.097H1064.66ZM1043.5 376.454H1064.1V356.02H1043.5V376.454Z" stroke="#5E0F00" stroke-opacity="0.4"/>
<path d="M1144.85 385.5V394.313H1209.15V385.5H1224.38V448.813H1208.15V452.5H1145.85V448.813H1129.62V385.5H1144.85ZM1231.5 429.705V439.581H1225.38V429.705H1231.5ZM1128.62 429.705V439.581H1122.5V429.705H1128.62ZM1231.5 414.754V424.63H1225.38V414.754H1231.5ZM1128.62 414.754V424.63H1122.5V414.754H1128.62Z" stroke="#5E0F00" stroke-opacity="0.2"/>
<path d="M1186.9 439.872V432.783H1179.84V409.766H1186.9V402.597H1209.63V409.766H1216.76V432.783H1209.63V439.872H1186.9ZM1188.46 430.955H1208.06V411.52H1188.46V430.955Z" fill="#5E0F00" fill-opacity="0.2"/>
<path d="M1209.13 403.097V410.266H1216.26V432.283H1209.13V439.372H1187.4V432.283H1180.34V410.266H1187.4V403.097H1209.13ZM1187.96 431.454H1208.56V411.02H1187.96V431.454Z" stroke="#5E0F00" stroke-opacity="0.2"/>
<path d="M1144.43 439.872V432.783H1137.37V409.766H1144.43V402.597H1167.16V409.766H1174.29V432.783H1167.16V439.872H1144.43ZM1146 430.955H1165.6V411.52H1146V430.955Z" fill="#5E0F00" fill-opacity="0.2"/>
<path d="M1166.66 403.097V410.266H1173.79V432.283H1166.66V439.372H1144.93V432.283H1137.87V410.266H1144.93V403.097H1166.66ZM1145.5 431.454H1166.1V411.02H1145.5V431.454Z" stroke="#5E0F00" stroke-opacity="0.2"/>
<path d="M1348.85 385.5V394.313H1413.15V385.5H1428.38V448.813H1412.15V452.5H1349.85V448.813H1333.62V385.5H1348.85ZM1435.5 429.705V439.581H1429.38V429.705H1435.5ZM1332.62 429.705V439.581H1326.5V429.705H1332.62ZM1435.5 414.754V424.63H1429.38V414.754H1435.5ZM1332.62 414.754V424.63H1326.5V414.754H1332.62Z" stroke="#5E0F00" stroke-opacity="0.1"/>
<path d="M1390.9 439.872V432.783H1383.84V409.766H1390.9V402.597H1413.63V409.766H1420.76V432.783H1413.63V439.872H1390.9ZM1392.46 430.955H1412.06V411.52H1392.46V430.955Z" fill="#5E0F00" fill-opacity="0.1"/>
<path d="M1413.13 403.097V410.266H1420.26V432.283H1413.13V439.372H1391.4V432.283H1384.34V410.266H1391.4V403.097H1413.13ZM1391.96 431.454H1412.56V411.02H1391.96V431.454Z" stroke="#5E0F00" stroke-opacity="0.1"/>
<path d="M1348.43 439.872V432.783H1341.37V409.766H1348.43V402.597H1371.16V409.766H1378.29V432.783H1371.16V439.872H1348.43ZM1350 430.955H1369.6V411.52H1350V430.955Z" fill="#5E0F00" fill-opacity="0.1"/>
<path d="M1370.66 403.097V410.266H1377.79V432.283H1370.66V439.372H1348.93V432.283H1341.87V410.266H1348.93V403.097H1370.66ZM1349.5 431.454H1370.1V411.02H1349.5V431.454Z" stroke="#5E0F00" stroke-opacity="0.1"/>
<path d="M1246.85 330.5V339.313H1311.15V330.5H1326.38V393.813H1310.15V397.5H1247.85V393.813H1231.62V330.5H1246.85ZM1333.5 374.705V384.581H1327.38V374.705H1333.5ZM1230.62 374.705V384.581H1224.5V374.705H1230.62ZM1333.5 359.754V369.63H1327.38V359.754H1333.5ZM1230.62 359.754V369.63H1224.5V359.754H1230.62Z" stroke="#5E0F00" stroke-opacity="0.1"/>
<path d="M1288.9 384.872V377.783H1281.84V354.766H1288.9V347.597H1311.63V354.766H1318.76V377.783H1311.63V384.872H1288.9ZM1290.46 375.955H1310.06V356.52H1290.46V375.955Z" fill="#5E0F00" fill-opacity="0.1"/>
<path d="M1311.13 348.097V355.266H1318.26V377.283H1311.13V384.372H1289.4V377.283H1282.34V355.266H1289.4V348.097H1311.13ZM1289.96 376.454H1310.56V356.02H1289.96V376.454Z" stroke="#5E0F00" stroke-opacity="0.1"/>
<path d="M1246.43 384.872V377.783H1239.37V354.766H1246.43V347.597H1269.16V354.766H1276.29V377.783H1269.16V384.872H1246.43ZM1248 375.955H1267.6V356.52H1248V375.955Z" fill="#5E0F00" fill-opacity="0.1"/>
<path d="M1268.66 348.097V355.266H1275.79V377.283H1268.66V384.372H1246.93V377.283H1239.87V355.266H1246.93V348.097H1268.66ZM1247.5 376.454H1268.1V356.02H1247.5V376.454Z" stroke="#5E0F00" stroke-opacity="0.1"/>
</svg>
